<svg width="19" height="19" viewBox="0 0 19 19" fill="none" xmlns="http://www.w3.org/2000/svg">
<g clip-path="url(#clip0_1_618)">
<path d="M5.754 1.958H2.01C1.626 1.958 1.305 2.078 1.047 2.318C0.789004 2.558 0.660004 2.864 0.660004 3.236V6.98C0.660004 7.352 0.792004 7.67 1.056 7.934C1.32 8.198 1.638 8.33 2.01 8.33H5.754C6.138 8.33 6.459 8.198 6.717 7.934C6.975 7.67 7.104 7.352 7.104 6.98V3.236C7.104 2.864 6.975 2.558 6.717 2.318C6.459 2.078 6.138 1.958 5.754 1.958ZM5.898 6.98C5.898 7.016 5.883 7.049 5.853 7.079C5.823 7.109 5.79 7.124 5.754 7.124H2.01C1.974 7.16 1.938 7.157 1.902 7.115C1.866 7.073 1.848 7.028 1.848 6.98V3.236C1.848 3.188 1.866 3.149 1.902 3.119C1.938 3.089 1.974 3.074 2.01 3.074H5.754C5.79 3.074 5.823 3.089 5.853 3.119C5.883 3.149 5.898 3.188 5.898 3.236V6.98ZM5.754 10.202H2.01C1.638 10.202 1.32 10.331 1.056 10.589C0.792004 10.847 0.660004 11.168 0.660004 11.552V15.296C0.660004 15.68 0.792004 16.004 1.056 16.268C1.32 16.532 1.638 16.664 2.01 16.664H5.754C6.126 16.664 6.444 16.532 6.708 16.268C6.972 16.004 7.104 15.68 7.104 15.296V11.552C7.104 11.144 6.975 10.817 6.717 10.571C6.459 10.325 6.138 10.202 5.754 10.202ZM5.898 15.224C5.898 15.26 5.883 15.296 5.853 15.332C5.823 15.368 5.79 15.386 5.754 15.386H2.01C1.974 15.386 1.938 15.368 1.902 15.332C1.866 15.296 1.848 15.26 1.848 15.224V11.48C1.848 11.444 1.866 11.411 1.902 11.381C1.938 11.351 1.974 11.336 2.01 11.336H5.754C5.79 11.336 5.823 11.351 5.853 11.381C5.883 11.411 5.898 11.444 5.898 11.48V15.224ZM9.498 3.83H14.754C14.91 3.83 15.048 3.773 15.168 3.659C15.288 3.545 15.348 3.404 15.348 3.236C15.348 3.068 15.291 2.936 15.177 2.84C15.063 2.744 14.922 2.696 14.754 2.696H9.498C9.342 2.696 9.204 2.753 9.084 2.867C8.964 2.981 8.904 3.128 8.904 3.308C8.904 3.488 8.961 3.62 9.075 3.704C9.189 3.788 9.33 3.83 9.498 3.83ZM14.754 6.458H9.498C9.342 6.458 9.204 6.512 9.084 6.62C8.964 6.728 8.904 6.875 8.904 7.061C8.904 7.247 8.958 7.391 9.066 7.493C9.174 7.595 9.318 7.646 9.498 7.646H14.754C14.91 7.646 15.048 7.592 15.168 7.484C15.288 7.376 15.348 7.232 15.348 7.052C15.348 6.872 15.288 6.728 15.168 6.62C15.048 6.512 14.91 6.458 14.754 6.458ZM14.754 10.958H9.498C9.342 10.958 9.204 11.012 9.084 11.12C8.964 11.228 8.904 11.375 8.904 11.561C8.904 11.747 8.958 11.891 9.066 11.993C9.174 12.095 9.318 12.146 9.498 12.146H14.754C14.91 12.146 15.048 12.092 15.168 11.984C15.288 11.876 15.348 11.732 15.348 11.552C15.348 11.372 15.288 11.228 15.168 11.12C15.048 11.012 14.91 10.958 14.754 10.958ZM14.754 14.702H9.498C9.342 14.702 9.204 14.759 9.084 14.873C8.964 14.987 8.904 15.131 8.904 15.305C8.904 15.479 8.958 15.623 9.066 15.737C9.174 15.851 9.318 15.908 9.498 15.908H14.754C14.91 15.908 15.048 15.851 15.168 15.737C15.288 15.623 15.348 15.476 15.348 15.296C15.348 15.116 15.288 14.972 15.168 14.864C15.048 14.756 14.91 14.702 14.754 14.702Z" fill="#6B7280"/>
</g>
<defs>
<clipPath id="clip0_1_618">
<rect width="18" height="18" fill="white" transform="matrix(1 0 0 -1 0.5 18.23)"/>
</clipPath>
</defs>
</svg>
