<svg width="19" height="19" viewBox="0 0 19 19" fill="none" xmlns="http://www.w3.org/2000/svg">
<g clip-path="url(#clip0_1_615)">
<path d="M5.754 1.958H2.01C1.626 1.958 1.305 2.078 1.047 2.318C0.789004 2.558 0.660004 2.864 0.660004 3.236V6.98C0.660004 7.352 0.792004 7.67 1.056 7.934C1.32 8.198 1.638 8.33 2.01 8.33H5.754C6.138 8.33 6.459 8.198 6.717 7.934C6.975 7.67 7.104 7.352 7.104 6.98V3.236C7.104 2.864 6.975 2.558 6.717 2.318C6.459 2.078 6.138 1.958 5.754 1.958ZM5.898 6.98C5.898 7.016 5.883 7.049 5.853 7.079C5.823 7.109 5.79 7.124 5.754 7.124H2.01C1.974 7.16 1.938 7.157 1.902 7.115C1.866 7.073 1.848 7.028 1.848 6.98V3.236C1.848 3.188 1.866 3.149 1.902 3.119C1.938 3.089 1.974 3.074 2.01 3.074H5.754C5.79 3.074 5.823 3.089 5.853 3.119C5.883 3.149 5.898 3.188 5.898 3.236V6.98ZM13.998 1.958H10.254C9.882 1.958 9.564 2.087 9.3 2.345C9.036 2.603 8.904 2.924 8.904 3.308V7.052C8.904 7.424 9.036 7.742 9.3 8.006C9.564 8.27 9.882 8.402 10.254 8.402H13.998C14.382 8.402 14.703 8.27 14.961 8.006C15.219 7.742 15.348 7.424 15.348 7.052V3.236C15.348 2.864 15.219 2.558 14.961 2.318C14.703 2.078 14.382 1.958 13.998 1.958ZM14.16 6.98C14.16 7.016 14.145 7.049 14.115 7.079C14.085 7.109 14.046 7.124 13.998 7.124H10.254C10.218 7.124 10.185 7.109 10.155 7.079C10.125 7.049 10.11 7.016 10.11 6.98V3.236C10.11 3.188 10.125 3.149 10.155 3.119C10.185 3.089 10.218 3.074 10.254 3.074H13.998C14.046 3.074 14.085 3.089 14.115 3.119C14.145 3.149 14.16 3.188 14.16 3.236V6.98ZM13.998 10.202H10.254C9.882 10.202 9.564 10.331 9.3 10.589C9.036 10.847 8.904 11.168 8.904 11.552V15.296C8.904 15.68 9.036 16.004 9.3 16.268C9.564 16.532 9.882 16.664 10.254 16.664H13.998C14.37 16.664 14.688 16.532 14.952 16.268C15.216 16.004 15.348 15.68 15.348 15.296V11.552C15.348 11.144 15.219 10.817 14.961 10.571C14.703 10.325 14.382 10.202 13.998 10.202ZM14.16 15.224C14.16 15.26 14.145 15.296 14.115 15.332C14.085 15.368 14.046 15.386 13.998 15.386H10.254C10.218 15.386 10.185 15.368 10.155 15.332C10.125 15.296 10.11 15.26 10.11 15.224V11.48C10.11 11.444 10.125 11.411 10.155 11.381C10.185 11.351 10.218 11.336 10.254 11.336H13.998C14.046 11.336 14.085 11.351 14.115 11.381C14.145 11.411 14.16 11.444 14.16 11.48V15.224ZM5.754 10.202H2.01C1.638 10.202 1.32 10.331 1.056 10.589C0.792004 10.847 0.660004 11.168 0.660004 11.552V15.296C0.660004 15.68 0.792004 16.004 1.056 16.268C1.32 16.532 1.638 16.664 2.01 16.664H5.754C6.126 16.664 6.444 16.532 6.708 16.268C6.972 16.004 7.104 15.68 7.104 15.296V11.552C7.104 11.144 6.975 10.817 6.717 10.571C6.459 10.325 6.138 10.202 5.754 10.202ZM5.898 15.224C5.898 15.26 5.883 15.296 5.853 15.332C5.823 15.368 5.79 15.386 5.754 15.386H2.01C1.974 15.386 1.938 15.368 1.902 15.332C1.866 15.296 1.848 15.26 1.848 15.224V11.48C1.848 11.444 1.866 11.411 1.902 11.381C1.938 11.351 1.974 11.336 2.01 11.336H5.754C5.79 11.336 5.823 11.351 5.853 11.381C5.883 11.411 5.898 11.444 5.898 11.48V15.224Z" fill="#111827"/>
</g>
<defs>
<clipPath id="clip0_1_615">
<rect width="18" height="18" fill="white" transform="matrix(1 0 0 -1 0.5 18.23)"/>
</clipPath>
</defs>
</svg>
