<svg width="4" height="7" viewBox="0 0 4 7" fill="none" xmlns="http://www.w3.org/2000/svg">
<path d="M3.86123 3.13798L0.861232 0.137984C0.781232 0.0659842 0.689232 0.0299845 0.585232 0.0299845C0.481232 0.0299845 0.389232 0.0659842 0.309232 0.137984C0.229232 0.209984 0.191232 0.299984 0.195232 0.407984C0.199232 0.515985 0.237232 0.609984 0.309232 0.689984L3.05723 3.43798L0.309232 6.18598C0.237232 6.26598 0.201232 6.35998 0.201232 6.46798C0.201232 6.57598 0.237232 6.66598 0.309232 6.73798C0.333232 6.76198 0.369232 6.78398 0.417232 6.80398C0.465232 6.82398 0.513232 6.83398 0.561232 6.83398C0.609232 6.83398 0.657232 6.82398 0.705232 6.80398C0.753232 6.78398 0.789232 6.76198 0.813232 6.73798L3.81323 3.73798C3.99723 3.49798 4.01323 3.29798 3.86123 3.13798Z" fill="#9CA3AF"/>
</svg>
