<svg width="28" height="29" viewBox="0 0 28 29" fill="none" xmlns="http://www.w3.org/2000/svg">
<path d="M22.084 4.52619H3.43603C2.85737 4.52619 2.31603 4.66619 1.81203 4.94619C1.30803 5.22619 0.906701 5.60885 0.608034 6.09419C0.309368 6.57952 0.160034 7.11152 0.160034 7.69019V21.6902C0.160034 22.2689 0.304701 22.8102 0.594034 23.3142C0.883368 23.8182 1.27537 24.2195 1.77003 24.5182C2.2647 24.8169 2.82003 24.9662 3.43603 24.9662H22.084C22.6627 24.9662 23.204 24.8215 23.708 24.5322C24.212 24.2429 24.6134 23.8509 24.912 23.3562C25.2107 22.8615 25.36 22.3062 25.36 21.6902V7.69019C25.36 7.11152 25.2107 6.57952 24.912 6.09419C24.6134 5.60885 24.212 5.22619 23.708 4.94619C23.204 4.66619 22.6627 4.52619 22.084 4.52619ZM3.43603 6.29019H22.084C22.4947 6.29019 22.8307 6.43019 23.092 6.71019C23.3534 6.99019 23.484 7.31685 23.484 7.69019V8.39019L13.46 14.8022C13.2174 14.9142 12.9654 14.9702 12.704 14.9702C12.4427 14.9702 12.1907 14.9142 11.948 14.8022L2.03603 8.39019V7.69019C2.03603 7.27952 2.1667 6.94352 2.42803 6.68219C2.68937 6.42085 3.02537 6.29019 3.43603 6.29019ZM22.084 23.2022H3.43603C3.04403 23.2022 2.7127 23.0575 2.44203 22.7682C2.17137 22.4789 2.03603 22.1569 2.03603 21.8022V10.4902L11.136 16.3142C11.528 16.6315 12.0694 16.7902 12.76 16.7902C13.4507 16.7902 13.992 16.6315 14.384 16.3142L23.484 10.4902V21.6902C23.484 22.1009 23.3534 22.4555 23.092 22.7542C22.8307 23.0529 22.4947 23.2022 22.084 23.2022Z" fill="#111827"/>
</svg>
