<svg width="27" height="26" viewBox="0 0 27 26" fill="none" xmlns="http://www.w3.org/2000/svg">
<g clip-path="url(#clip0_1_846)">
<path d="M22.412 3.25H1.29998C1.03998 3.28467 0.823317 3.406 0.649984 3.614C0.476651 3.822 0.389984 4.056 0.389984 4.316C0.389984 4.576 0.476651 4.81433 0.649984 5.031C0.823317 5.24767 1.03998 5.37333 1.29998 5.408H5.48598L4.73198 15.002V15.184C4.73198 15.7733 4.94432 16.2803 5.36898 16.705C5.79365 17.1297 6.30065 17.342 6.88998 17.342H20.176C20.696 17.342 21.151 17.1817 21.541 16.861C21.931 16.5403 22.178 16.146 22.282 15.678L24.518 5.902C24.5527 5.694 24.57 5.52933 24.57 5.408C24.57 4.80133 24.362 4.29 23.946 3.874C23.53 3.458 23.0187 3.25 22.412 3.25ZM20.176 15.158H6.88998L7.64398 5.408H22.412L20.176 15.158ZM8.89198 22.75C9.49865 22.75 10.0143 22.5377 10.439 22.113C10.8637 21.6883 11.076 21.1727 11.076 20.566C11.076 19.9593 10.8637 19.448 10.439 19.032C10.0143 18.616 9.49865 18.408 8.89198 18.408C8.30265 18.408 7.79565 18.616 7.37098 19.032C6.94632 19.448 6.73398 19.9593 6.73398 20.566C6.73398 21.1727 6.94632 21.6883 7.37098 22.113C7.79565 22.5377 8.30265 22.75 8.89198 22.75ZM18.642 22.75C19.2487 22.75 19.7643 22.5377 20.189 22.113C20.6137 21.6883 20.826 21.1727 20.826 20.566C20.826 19.9593 20.6137 19.448 20.189 19.032C19.7643 18.616 19.2487 18.408 18.642 18.408C18.0527 18.408 17.5457 18.616 17.121 19.032C16.6963 19.448 16.484 19.9593 16.484 20.566C16.484 21.1727 16.6963 21.6883 17.121 22.113C17.5457 22.5377 18.0527 22.75 18.642 22.75Z" fill="#030712"/>
</g>
<defs>
<clipPath id="clip0_1_846">
<rect width="26" height="26" fill="white" transform="matrix(1 0 0 -1 0.22998 26)"/>
</clipPath>
</defs>
</svg>
