<svg width="10" height="8" viewBox="0 0 10 8" fill="none" xmlns="http://www.w3.org/2000/svg">
<path d="M9.88982 0.456974C9.81182 0.378974 9.71432 0.339974 9.59732 0.339974C9.48032 0.339974 9.37849 0.378974 9.29182 0.456974L3.66282 6.08597L1.23182 3.65497C1.14515 3.56831 1.04332 3.52497 0.926319 3.52497C0.809319 3.52497 0.711819 3.56831 0.633819 3.65497C0.555819 3.74164 0.514653 3.84131 0.510319 3.95397C0.505986 4.06664 0.547153 4.16631 0.633819 4.25297L3.33782 6.95697C3.36382 6.98297 3.40282 7.00681 3.45482 7.02847C3.50682 7.05014 3.55882 7.06097 3.61082 7.06097C3.66282 7.06097 3.71482 7.05014 3.76682 7.02847C3.81882 7.00681 3.85782 6.98297 3.88382 6.95697L9.83782 1.00297C9.94182 0.916307 9.99815 0.825307 10.0068 0.729974C10.0155 0.634641 9.97649 0.543641 9.88982 0.456974Z" fill="white"/>
</svg>
