<svg width="19" height="15" viewBox="0 0 19 15" fill="none" xmlns="http://www.w3.org/2000/svg">
<path d="M15.82 0.370154H2.49997C2.08664 0.370154 1.69997 0.470154 1.33997 0.670155C0.979973 0.870154 0.693306 1.14349 0.479973 1.49015C0.26664 1.83682 0.159973 2.21682 0.159973 2.63015V12.6302C0.159973 13.0435 0.263306 13.4302 0.469973 13.7902C0.67664 14.1502 0.95664 14.4368 1.30997 14.6502C1.66331 14.8635 2.05997 14.9702 2.49997 14.9702H15.82C16.2333 14.9702 16.62 14.8668 16.98 14.6602C17.34 14.4535 17.6266 14.1735 17.84 13.8202C18.0533 13.4668 18.16 13.0702 18.16 12.6302V2.63015C18.16 2.21682 18.0533 1.83682 17.84 1.49015C17.6266 1.14349 17.34 0.870154 16.98 0.670155C16.62 0.470154 16.2333 0.370154 15.82 0.370154ZM2.49997 1.63015H15.82C16.1133 1.63015 16.3533 1.73015 16.54 1.93015C16.7266 2.13015 16.82 2.36349 16.82 2.63015V3.13015L9.65997 7.71015C9.48664 7.79015 9.30664 7.83015 9.11997 7.83015C8.93331 7.83015 8.75331 7.79015 8.57997 7.71015L1.49997 3.13015V2.63015C1.49997 2.33682 1.59331 2.09682 1.77997 1.91015C1.96664 1.72349 2.20664 1.63015 2.49997 1.63015ZM15.82 13.7102H2.49997C2.21997 13.7102 1.98331 13.6068 1.78997 13.4002C1.59664 13.1935 1.49997 12.9635 1.49997 12.7102V4.63015L7.99997 8.79015C8.27997 9.01682 8.66664 9.13015 9.15997 9.13015C9.65331 9.13015 10.04 9.01682 10.32 8.79015L16.82 4.63015V12.6302C16.82 12.9235 16.7266 13.1768 16.54 13.3902C16.3533 13.6035 16.1133 13.7102 15.82 13.7102Z" fill="#9CA3AF"/>
</svg>
