<svg width="37" height="37" viewBox="0 0 37 37" fill="none" xmlns="http://www.w3.org/2000/svg">
<rect x="0.5" y="0.0301514" width="36" height="36" rx="6" fill="white"/>
<g clip-path="url(#clip0_1_759)">
<path d="M21.4725 18.9602L21.8925 16.2452H19.2825V14.4902C19.2825 14.0702 19.3925 13.7352 19.6125 13.4852C19.8825 13.1752 20.2825 13.0202 20.8125 13.0202H21.9975V10.7102L21.3375 10.6202C20.8075 10.5602 20.3275 10.5302 19.8975 10.5302C19.1775 10.5302 18.5525 10.6727 18.0225 10.9577C17.4925 11.2427 17.0825 11.6602 16.7925 12.2102C16.5025 12.7602 16.3575 13.4202 16.3575 14.1902V16.2452H13.9725V18.9602H16.3575V25.5302H19.2825V18.9602H21.4725Z" fill="#1877F2"/>
</g>
<defs>
<clipPath id="clip0_1_759">
<rect width="15" height="15" fill="white" transform="matrix(1 0 0 -1 11 25.5302)"/>
</clipPath>
</defs>
</svg>
