<svg width="27" height="26" viewBox="0 0 27 26" fill="none" xmlns="http://www.w3.org/2000/svg">
<g clip-path="url(#clip0_1_841)">
<path d="M6.79001 5.40804C6.01001 5.40804 5.28634 5.60304 4.61901 5.99304C3.95168 6.38304 3.42301 6.91171 3.03301 7.57904C2.64301 8.24637 2.44801 8.97004 2.44801 9.75004C2.44801 11.5354 2.95934 13.234 3.98201 14.846C4.81401 16.198 5.97534 17.4634 7.46601 18.642C8.80068 19.734 10.3347 20.696 12.068 21.528L12.198 21.58C13.9833 20.7307 15.578 19.7427 16.982 18.616L16.93 18.642C18.4207 17.4634 19.582 16.198 20.414 14.846C21.4367 13.234 21.948 11.5354 21.948 9.75004C21.948 8.97004 21.753 8.24637 21.363 7.57904C20.973 6.91171 20.4443 6.38304 19.777 5.99304C19.1097 5.60304 18.386 5.40804 17.606 5.40804C16.9127 5.40804 16.2583 5.55971 15.643 5.86304C15.0277 6.16637 14.5077 6.58237 14.083 7.11104C13.6583 7.63971 13.3853 8.23337 13.264 8.89204C13.212 9.13471 13.0863 9.33837 12.887 9.50304C12.6877 9.66771 12.458 9.75004 12.198 9.75004C11.938 9.75004 11.7083 9.66771 11.509 9.50304C11.3097 9.33837 11.184 9.13471 11.132 8.89204C11.0107 8.23337 10.7377 7.63971 10.313 7.11104C9.88834 6.58237 9.36834 6.16637 8.75301 5.86304C8.13768 5.55971 7.48334 5.40804 6.79001 5.40804ZM12.198 23.842C12.042 23.8247 11.886 23.79 11.73 23.738C11.6433 23.7034 11.496 23.634 11.288 23.53C9.38134 22.6287 7.63934 21.5454 6.06201 20.28L6.11401 20.332C4.43268 19.0147 3.10668 17.576 2.13601 16.016C0.905342 14.04 0.290009 11.9514 0.290009 9.75004C0.290009 8.57137 0.580342 7.48371 1.16101 6.48704C1.74168 5.49037 2.53034 4.70171 3.52701 4.12104C4.52368 3.54037 5.61134 3.25004 6.79001 3.25004C7.88201 3.25004 8.90034 3.49704 9.84501 3.99104C10.7897 4.48504 11.574 5.15671 12.198 6.00604V6.03204C12.822 5.16537 13.6063 4.48504 14.551 3.99104C15.4957 3.49704 16.514 3.25004 17.606 3.25004C18.7847 3.25004 19.8723 3.54037 20.869 4.12104C21.8657 4.70171 22.6543 5.49037 23.235 6.48704C23.8157 7.48371 24.106 8.57137 24.106 9.75004C24.106 11.9514 23.4907 14.04 22.26 16.016C21.2893 17.576 19.9633 19.0147 18.282 20.332C16.7393 21.5454 15.0667 22.594 13.264 23.478L13.108 23.53C12.692 23.738 12.3887 23.842 12.198 23.842Z" fill="#030712"/>
</g>
<defs>
<clipPath id="clip0_1_841">
<rect width="26" height="26" fill="white" transform="matrix(1 0 0 -1 0.130005 26)"/>
</clipPath>
</defs>
</svg>
