<svg width="67" height="12" viewBox="0 0 67 12" fill="none" xmlns="http://www.w3.org/2000/svg">
<g clip-path="url(#clip0_1_192)">
<g clip-path="url(#clip1_1_192)">
<path d="M6.29206 0.515004C6.23339 0.397671 6.14906 0.304171 6.03906 0.234504C5.92906 0.164837 5.80806 0.130004 5.67606 0.130004C5.54406 0.130004 5.42122 0.164837 5.30756 0.234504C5.19389 0.304171 5.10772 0.397671 5.04906 0.515004L3.67406 3.364L0.583058 3.815C0.458391 3.82967 0.344725 3.87917 0.242058 3.9635C0.139391 4.04784 0.0697247 4.15234 0.033058 4.277C-0.00360867 4.40167 -0.00727534 4.52817 0.022058 4.6565C0.0513913 4.78484 0.113725 4.893 0.209058 4.981L2.44206 7.203L1.91406 10.327C1.89206 10.459 1.90672 10.5837 1.95806 10.701C2.00939 10.8183 2.08639 10.9173 2.18906 10.998C2.29172 11.0787 2.40906 11.1227 2.54106 11.13C2.67306 11.1373 2.79772 11.1117 2.91506 11.053L5.67606 9.579L8.43706 11.053C8.55439 11.1117 8.67722 11.1373 8.80556 11.13C8.93389 11.1227 9.05306 11.0805 9.16306 11.0035C9.27306 10.9265 9.35189 10.8275 9.39956 10.7065C9.44722 10.5855 9.46006 10.459 9.43806 10.327L8.89906 7.203L11.1431 4.981C11.2384 4.893 11.3007 4.78484 11.3301 4.6565C11.3594 4.52817 11.3521 4.40167 11.3081 4.277C11.2641 4.15234 11.1944 4.04784 11.0991 3.9635C11.0037 3.87917 10.8901 3.82967 10.7581 3.815L7.67806 3.364L6.29206 0.515004Z" fill="#D1D5DB"/>
<path d="M19.6671 0.515004C19.6084 0.397671 19.5241 0.304171 19.4141 0.234504C19.3041 0.164837 19.1831 0.130004 19.0511 0.130004C18.9191 0.130004 18.7962 0.164837 18.6826 0.234504C18.5689 0.304171 18.4827 0.397671 18.4241 0.515004L17.0491 3.364L13.9581 3.815C13.8334 3.82967 13.7197 3.87917 13.6171 3.9635C13.5144 4.04784 13.4447 4.15234 13.4081 4.277C13.3714 4.40167 13.3677 4.52817 13.3971 4.6565C13.4264 4.78484 13.4887 4.893 13.5841 4.981L15.8171 7.203L15.2891 10.327C15.2671 10.459 15.2817 10.5837 15.3331 10.701C15.3844 10.8183 15.4614 10.9173 15.5641 10.998C15.6667 11.0787 15.7841 11.1227 15.9161 11.13C16.0481 11.1373 16.1727 11.1117 16.2901 11.053L19.0511 9.579L21.8121 11.053C21.9294 11.1117 22.0522 11.1373 22.1806 11.13C22.3089 11.1227 22.4281 11.0805 22.5381 11.0035C22.6481 10.9265 22.7269 10.8275 22.7746 10.7065C22.8222 10.5855 22.8351 10.459 22.8131 10.327L22.2741 7.203L24.5181 4.981C24.6134 4.893 24.6757 4.78484 24.7051 4.6565C24.7344 4.52817 24.7271 4.40167 24.6831 4.277C24.6391 4.15234 24.5694 4.04784 24.4741 3.9635C24.3787 3.87917 24.2651 3.82967 24.1331 3.815L21.0531 3.364L19.6671 0.515004Z" fill="#D1D5DB"/>
<path d="M33.0421 0.515004C32.9834 0.397671 32.8991 0.304171 32.7891 0.234504C32.6791 0.164837 32.5581 0.130004 32.4261 0.130004C32.2941 0.130004 32.1712 0.164837 32.0576 0.234504C31.9439 0.304171 31.8577 0.397671 31.7991 0.515004L30.4241 3.364L27.3331 3.815C27.2084 3.82967 27.0947 3.87917 26.9921 3.9635C26.8894 4.04784 26.8197 4.15234 26.7831 4.277C26.7464 4.40167 26.7427 4.52817 26.7721 4.6565C26.8014 4.78484 26.8637 4.893 26.9591 4.981L29.1921 7.203L28.6641 10.327C28.6421 10.459 28.6567 10.5837 28.7081 10.701C28.7594 10.8183 28.8364 10.9173 28.9391 10.998C29.0417 11.0787 29.1591 11.1227 29.2911 11.13C29.4231 11.1373 29.5477 11.1117 29.6651 11.053L32.4261 9.579L35.1871 11.053C35.3044 11.1117 35.4272 11.1373 35.5556 11.13C35.6839 11.1227 35.8031 11.0805 35.9131 11.0035C36.0231 10.9265 36.1019 10.8275 36.1496 10.7065C36.1972 10.5855 36.2101 10.459 36.1881 10.327L35.6491 7.203L37.8931 4.981C37.9884 4.893 38.0507 4.78484 38.0801 4.6565C38.1094 4.52817 38.1021 4.40167 38.0581 4.277C38.0141 4.15234 37.9444 4.04784 37.8491 3.9635C37.7537 3.87917 37.6401 3.82967 37.5081 3.815L34.4281 3.364L33.0421 0.515004Z" fill="#D1D5DB"/>
<path d="M46.4171 0.515004C46.3584 0.397671 46.2741 0.304171 46.1641 0.234504C46.0541 0.164837 45.9331 0.130004 45.8011 0.130004C45.6691 0.130004 45.5462 0.164837 45.4326 0.234504C45.3189 0.304171 45.2327 0.397671 45.1741 0.515004L43.7991 3.364L40.7081 3.815C40.5834 3.82967 40.4697 3.87917 40.3671 3.9635C40.2644 4.04784 40.1947 4.15234 40.1581 4.277C40.1214 4.40167 40.1177 4.52817 40.1471 4.6565C40.1764 4.78484 40.2387 4.893 40.3341 4.981L42.5671 7.203L42.0391 10.327C42.0171 10.459 42.0317 10.5837 42.0831 10.701C42.1344 10.8183 42.2114 10.9173 42.3141 10.998C42.4167 11.0787 42.5341 11.1227 42.6661 11.13C42.7981 11.1373 42.9227 11.1117 43.0401 11.053L45.8011 9.579L48.5621 11.053C48.6794 11.1117 48.8022 11.1373 48.9306 11.13C49.0589 11.1227 49.1781 11.0805 49.2881 11.0035C49.3981 10.9265 49.4769 10.8275 49.5246 10.7065C49.5722 10.5855 49.5851 10.459 49.5631 10.327L49.0241 7.203L51.2681 4.981C51.3634 4.893 51.4257 4.78484 51.4551 4.6565C51.4844 4.52817 51.4771 4.40167 51.4331 4.277C51.3891 4.15234 51.3194 4.04784 51.2241 3.9635C51.1287 3.87917 51.0151 3.82967 50.8831 3.815L47.8031 3.364L46.4171 0.515004Z" fill="#D1D5DB"/>
<path d="M59.7921 0.515004C59.7334 0.397671 59.6491 0.304171 59.5391 0.234504C59.4291 0.164837 59.3081 0.130004 59.1761 0.130004C59.0441 0.130004 58.9213 0.164837 58.8076 0.234504C58.6939 0.304171 58.6078 0.397671 58.5491 0.515004L57.1741 3.364L54.0831 3.815C53.9584 3.82967 53.8448 3.87917 53.7421 3.9635C53.6394 4.04784 53.5698 4.15234 53.5331 4.277C53.4964 4.40167 53.4928 4.52817 53.5221 4.6565C53.5514 4.78484 53.6138 4.893 53.7091 4.981L55.9421 7.203L55.4141 10.327C55.3921 10.459 55.4068 10.5837 55.4581 10.701C55.5094 10.8183 55.5864 10.9173 55.6891 10.998C55.7918 11.0787 55.9091 11.1227 56.0411 11.13C56.1731 11.1373 56.2978 11.1117 56.4151 11.053L59.1761 9.579L61.9371 11.053C62.0544 11.1117 62.1773 11.1373 62.3056 11.13C62.4339 11.1227 62.5531 11.0805 62.6631 11.0035C62.7731 10.9265 62.8519 10.8275 62.8996 10.7065C62.9473 10.5855 62.9601 10.459 62.9381 10.327L62.3991 7.203L64.6431 4.981C64.7384 4.893 64.8008 4.78484 64.8301 4.6565C64.8594 4.52817 64.8521 4.40167 64.8081 4.277C64.7641 4.15234 64.6944 4.04784 64.5991 3.9635C64.5038 3.87917 64.3901 3.82967 64.2581 3.815L61.1781 3.364L59.7921 0.515004Z" fill="#D1D5DB"/>
</g>
<g clip-path="url(#clip2_1_192)">
<g clip-path="url(#clip3_1_192)">
<path d="M6.29206 0.515004C6.23339 0.397671 6.14906 0.304171 6.03906 0.234504C5.92906 0.164837 5.80806 0.130004 5.67606 0.130004C5.54406 0.130004 5.42122 0.164837 5.30756 0.234504C5.19389 0.304171 5.10772 0.397671 5.04906 0.515004L3.67406 3.364L0.583058 3.815C0.458391 3.82967 0.344725 3.87917 0.242058 3.9635C0.139391 4.04784 0.0697247 4.15234 0.033058 4.277C-0.00360867 4.40167 -0.00727534 4.52817 0.022058 4.6565C0.0513913 4.78484 0.113725 4.893 0.209058 4.981L2.44206 7.203L1.91406 10.327C1.89206 10.459 1.90672 10.5837 1.95806 10.701C2.00939 10.8183 2.08639 10.9173 2.18906 10.998C2.29172 11.0787 2.40906 11.1227 2.54106 11.13C2.67306 11.1373 2.79772 11.1117 2.91506 11.053L5.67606 9.579L8.43706 11.053C8.55439 11.1117 8.67722 11.1373 8.80556 11.13C8.93389 11.1227 9.05306 11.0805 9.16306 11.0035C9.27306 10.9265 9.35189 10.8275 9.39956 10.7065C9.44722 10.5855 9.46006 10.459 9.43806 10.327L8.89906 7.203L11.1431 4.981C11.2384 4.893 11.3007 4.78484 11.3301 4.6565C11.3594 4.52817 11.3521 4.40167 11.3081 4.277C11.2641 4.15234 11.1944 4.04784 11.0991 3.9635C11.0037 3.87917 10.8901 3.82967 10.7581 3.815L7.67806 3.364L6.29206 0.515004Z" fill="#FACC15"/>
<path d="M19.6671 0.515004C19.6084 0.397671 19.5241 0.304171 19.4141 0.234504C19.3041 0.164837 19.1831 0.130004 19.0511 0.130004C18.9191 0.130004 18.7962 0.164837 18.6826 0.234504C18.5689 0.304171 18.4827 0.397671 18.4241 0.515004L17.0491 3.364L13.9581 3.815C13.8334 3.82967 13.7197 3.87917 13.6171 3.9635C13.5144 4.04784 13.4447 4.15234 13.4081 4.277C13.3714 4.40167 13.3677 4.52817 13.3971 4.6565C13.4264 4.78484 13.4887 4.893 13.5841 4.981L15.8171 7.203L15.2891 10.327C15.2671 10.459 15.2817 10.5837 15.3331 10.701C15.3844 10.8183 15.4614 10.9173 15.5641 10.998C15.6667 11.0787 15.7841 11.1227 15.9161 11.13C16.0481 11.1373 16.1727 11.1117 16.2901 11.053L19.0511 9.579L21.8121 11.053C21.9294 11.1117 22.0522 11.1373 22.1806 11.13C22.3089 11.1227 22.4281 11.0805 22.5381 11.0035C22.6481 10.9265 22.7269 10.8275 22.7746 10.7065C22.8222 10.5855 22.8351 10.459 22.8131 10.327L22.2741 7.203L24.5181 4.981C24.6134 4.893 24.6757 4.78484 24.7051 4.6565C24.7344 4.52817 24.7271 4.40167 24.6831 4.277C24.6391 4.15234 24.5694 4.04784 24.4741 3.9635C24.3787 3.87917 24.2651 3.82967 24.1331 3.815L21.0531 3.364L19.6671 0.515004Z" fill="#FACC15"/>
<path d="M33.0421 0.515004C32.9834 0.397671 32.8991 0.304171 32.7891 0.234504C32.6791 0.164837 32.5581 0.130004 32.4261 0.130004C32.2941 0.130004 32.1712 0.164837 32.0576 0.234504C31.9439 0.304171 31.8577 0.397671 31.7991 0.515004L30.4241 3.364L27.3331 3.815C27.2084 3.82967 27.0947 3.87917 26.9921 3.9635C26.8894 4.04784 26.8197 4.15234 26.7831 4.277C26.7464 4.40167 26.7427 4.52817 26.7721 4.6565C26.8014 4.78484 26.8637 4.893 26.9591 4.981L29.1921 7.203L28.6641 10.327C28.6421 10.459 28.6567 10.5837 28.7081 10.701C28.7594 10.8183 28.8364 10.9173 28.9391 10.998C29.0417 11.0787 29.1591 11.1227 29.2911 11.13C29.4231 11.1373 29.5477 11.1117 29.6651 11.053L32.4261 9.579L35.1871 11.053C35.3044 11.1117 35.4272 11.1373 35.5556 11.13C35.6839 11.1227 35.8031 11.0805 35.9131 11.0035C36.0231 10.9265 36.1019 10.8275 36.1496 10.7065C36.1972 10.5855 36.2101 10.459 36.1881 10.327L35.6491 7.203L37.8931 4.981C37.9884 4.893 38.0507 4.78484 38.0801 4.6565C38.1094 4.52817 38.1021 4.40167 38.0581 4.277C38.0141 4.15234 37.9444 4.04784 37.8491 3.9635C37.7537 3.87917 37.6401 3.82967 37.5081 3.815L34.4281 3.364L33.0421 0.515004Z" fill="#FACC15"/>
<path d="M46.4171 0.515004C46.3584 0.397671 46.2741 0.304171 46.1641 0.234504C46.0541 0.164837 45.9331 0.130004 45.8011 0.130004C45.6691 0.130004 45.5462 0.164837 45.4326 0.234504C45.3189 0.304171 45.2327 0.397671 45.1741 0.515004L43.7991 3.364L40.7081 3.815C40.5834 3.82967 40.4697 3.87917 40.3671 3.9635C40.2644 4.04784 40.1947 4.15234 40.1581 4.277C40.1214 4.40167 40.1177 4.52817 40.1471 4.6565C40.1764 4.78484 40.2387 4.893 40.3341 4.981L42.5671 7.203L42.0391 10.327C42.0171 10.459 42.0317 10.5837 42.0831 10.701C42.1344 10.8183 42.2114 10.9173 42.3141 10.998C42.4167 11.0787 42.5341 11.1227 42.6661 11.13C42.7981 11.1373 42.9227 11.1117 43.0401 11.053L45.8011 9.579L48.5621 11.053C48.6794 11.1117 48.8022 11.1373 48.9306 11.13C49.0589 11.1227 49.1781 11.0805 49.2881 11.0035C49.3981 10.9265 49.4769 10.8275 49.5246 10.7065C49.5722 10.5855 49.5851 10.459 49.5631 10.327L49.0241 7.203L51.2681 4.981C51.3634 4.893 51.4257 4.78484 51.4551 4.6565C51.4844 4.52817 51.4771 4.40167 51.4331 4.277C51.3891 4.15234 51.3194 4.04784 51.2241 3.9635C51.1287 3.87917 51.0151 3.82967 50.8831 3.815L47.8031 3.364L46.4171 0.515004Z" fill="#FACC15"/>
</g>
</g>
</g>
<defs>
<clipPath id="clip0_1_192">
<rect width="66.88" height="11" fill="white" transform="translate(0 0.130005)"/>
</clipPath>
<clipPath id="clip1_1_192">
<rect width="66.88" height="11" fill="white" transform="matrix(1 0 0 -1 0 11.13)"/>
</clipPath>
<clipPath id="clip2_1_192">
<rect width="44.53" height="11" fill="white" transform="translate(0 0.130005)"/>
</clipPath>
<clipPath id="clip3_1_192">
<rect width="66.88" height="11" fill="white" transform="matrix(1 0 0 -1 0 11.13)"/>
</clipPath>
</defs>
</svg>
