<svg width="68" height="12" viewBox="0 0 68 12" fill="none" xmlns="http://www.w3.org/2000/svg">
<g clip-path="url(#clip0_1_157)">
<g clip-path="url(#clip1_1_157)">
<path d="M6.79206 0.404958C6.73339 0.287624 6.64906 0.194124 6.53906 0.124457C6.42906 0.0547905 6.30806 0.0199575 6.17606 0.0199575C6.04406 0.0199575 5.92122 0.0547905 5.80756 0.124457C5.69389 0.194124 5.60772 0.287624 5.54906 0.404958L4.17406 3.25396L1.08306 3.70496C0.958391 3.71962 0.844725 3.76912 0.742058 3.85346C0.639391 3.93779 0.569725 4.04229 0.533058 4.16696C0.496391 4.29162 0.492725 4.41812 0.522058 4.54646C0.551391 4.67479 0.613725 4.78296 0.709058 4.87096L2.94206 7.09296L2.41406 10.217C2.39206 10.349 2.40672 10.4736 2.45806 10.591C2.50939 10.7083 2.58639 10.8073 2.68906 10.888C2.79172 10.9686 2.90906 11.0126 3.04106 11.02C3.17306 11.0273 3.29772 11.0016 3.41506 10.943L6.17606 9.46896L8.93706 10.943C9.05439 11.0016 9.17722 11.0273 9.30556 11.02C9.43389 11.0126 9.55306 10.9705 9.66306 10.8935C9.77306 10.8165 9.85189 10.7175 9.89956 10.5965C9.94722 10.4755 9.96006 10.349 9.93806 10.217L9.39906 7.09296L11.6431 4.87096C11.7384 4.78296 11.8007 4.67479 11.8301 4.54646C11.8594 4.41812 11.8521 4.29162 11.8081 4.16696C11.7641 4.04229 11.6944 3.93779 11.5991 3.85346C11.5037 3.76912 11.3901 3.71962 11.2581 3.70496L8.17806 3.25396L6.79206 0.404958Z" fill="#D1D5DB"/>
<path d="M20.1671 0.404958C20.1084 0.287624 20.0241 0.194124 19.9141 0.124457C19.8041 0.0547905 19.6831 0.0199575 19.5511 0.0199575C19.4191 0.0199575 19.2962 0.0547905 19.1826 0.124457C19.0689 0.194124 18.9827 0.287624 18.9241 0.404958L17.5491 3.25396L14.4581 3.70496C14.3334 3.71962 14.2197 3.76912 14.1171 3.85346C14.0144 3.93779 13.9447 4.04229 13.9081 4.16696C13.8714 4.29162 13.8677 4.41812 13.8971 4.54646C13.9264 4.67479 13.9887 4.78296 14.0841 4.87096L16.3171 7.09296L15.7891 10.217C15.7671 10.349 15.7817 10.4736 15.8331 10.591C15.8844 10.7083 15.9614 10.8073 16.0641 10.888C16.1667 10.9686 16.2841 11.0126 16.4161 11.02C16.5481 11.0273 16.6727 11.0016 16.7901 10.943L19.5511 9.46896L22.3121 10.943C22.4294 11.0016 22.5522 11.0273 22.6806 11.02C22.8089 11.0126 22.9281 10.9705 23.0381 10.8935C23.1481 10.8165 23.2269 10.7175 23.2746 10.5965C23.3222 10.4755 23.3351 10.349 23.3131 10.217L22.7741 7.09296L25.0181 4.87096C25.1134 4.78296 25.1757 4.67479 25.2051 4.54646C25.2344 4.41812 25.2271 4.29162 25.1831 4.16696C25.1391 4.04229 25.0694 3.93779 24.9741 3.85346C24.8787 3.76912 24.7651 3.71962 24.6331 3.70496L21.5531 3.25396L20.1671 0.404958Z" fill="#D1D5DB"/>
<path d="M33.5421 0.404958C33.4834 0.287624 33.3991 0.194124 33.2891 0.124457C33.1791 0.0547905 33.0581 0.0199575 32.9261 0.0199575C32.7941 0.0199575 32.6712 0.0547905 32.5576 0.124457C32.4439 0.194124 32.3577 0.287624 32.2991 0.404958L30.9241 3.25396L27.8331 3.70496C27.7084 3.71962 27.5947 3.76912 27.4921 3.85346C27.3894 3.93779 27.3197 4.04229 27.2831 4.16696C27.2464 4.29162 27.2427 4.41812 27.2721 4.54646C27.3014 4.67479 27.3637 4.78296 27.4591 4.87096L29.6921 7.09296L29.1641 10.217C29.1421 10.349 29.1567 10.4736 29.2081 10.591C29.2594 10.7083 29.3364 10.8073 29.4391 10.888C29.5417 10.9686 29.6591 11.0126 29.7911 11.02C29.9231 11.0273 30.0477 11.0016 30.1651 10.943L32.9261 9.46896L35.6871 10.943C35.8044 11.0016 35.9272 11.0273 36.0556 11.02C36.1839 11.0126 36.3031 10.9705 36.4131 10.8935C36.5231 10.8165 36.6019 10.7175 36.6496 10.5965C36.6972 10.4755 36.7101 10.349 36.6881 10.217L36.1491 7.09296L38.3931 4.87096C38.4884 4.78296 38.5507 4.67479 38.5801 4.54646C38.6094 4.41812 38.6021 4.29162 38.5581 4.16696C38.5141 4.04229 38.4444 3.93779 38.3491 3.85346C38.2537 3.76912 38.1401 3.71962 38.0081 3.70496L34.9281 3.25396L33.5421 0.404958Z" fill="#D1D5DB"/>
<path d="M46.9171 0.404958C46.8584 0.287624 46.7741 0.194124 46.6641 0.124457C46.5541 0.0547905 46.4331 0.0199575 46.3011 0.0199575C46.1691 0.0199575 46.0462 0.0547905 45.9326 0.124457C45.8189 0.194124 45.7327 0.287624 45.6741 0.404958L44.2991 3.25396L41.2081 3.70496C41.0834 3.71962 40.9697 3.76912 40.8671 3.85346C40.7644 3.93779 40.6947 4.04229 40.6581 4.16696C40.6214 4.29162 40.6177 4.41812 40.6471 4.54646C40.6764 4.67479 40.7387 4.78296 40.8341 4.87096L43.0671 7.09296L42.5391 10.217C42.5171 10.349 42.5317 10.4736 42.5831 10.591C42.6344 10.7083 42.7114 10.8073 42.8141 10.888C42.9167 10.9686 43.0341 11.0126 43.1661 11.02C43.2981 11.0273 43.4227 11.0016 43.5401 10.943L46.3011 9.46896L49.0621 10.943C49.1794 11.0016 49.3022 11.0273 49.4306 11.02C49.5589 11.0126 49.6781 10.9705 49.7881 10.8935C49.8981 10.8165 49.9769 10.7175 50.0246 10.5965C50.0722 10.4755 50.0851 10.349 50.0631 10.217L49.5241 7.09296L51.7681 4.87096C51.8634 4.78296 51.9257 4.67479 51.9551 4.54646C51.9844 4.41812 51.9771 4.29162 51.9331 4.16696C51.8891 4.04229 51.8194 3.93779 51.7241 3.85346C51.6287 3.76912 51.5151 3.71962 51.3831 3.70496L48.3031 3.25396L46.9171 0.404958Z" fill="#D1D5DB"/>
<path d="M60.2921 0.404958C60.2335 0.287624 60.1491 0.194124 60.0391 0.124457C59.9291 0.0547905 59.8081 0.0199575 59.6761 0.0199575C59.5441 0.0199575 59.4213 0.0547905 59.3076 0.124457C59.194 0.194124 59.1078 0.287624 59.0491 0.404958L57.6741 3.25396L54.5831 3.70496C54.4585 3.71962 54.3448 3.76912 54.2421 3.85346C54.1395 3.93779 54.0698 4.04229 54.0331 4.16696C53.9965 4.29162 53.9928 4.41812 54.0221 4.54646C54.0515 4.67479 54.1138 4.78296 54.2091 4.87096L56.4421 7.09296L55.9141 10.217C55.8921 10.349 55.9068 10.4736 55.9581 10.591C56.0095 10.7083 56.0865 10.8073 56.1891 10.888C56.2918 10.9686 56.4091 11.0126 56.5411 11.02C56.6731 11.0273 56.7978 11.0016 56.9151 10.943L59.6761 9.46896L62.4371 10.943C62.5545 11.0016 62.6773 11.0273 62.8056 11.02C62.934 11.0126 63.0531 10.9705 63.1631 10.8935C63.2731 10.8165 63.352 10.7175 63.3996 10.5965C63.4473 10.4755 63.4601 10.349 63.4381 10.217L62.8991 7.09296L65.1431 4.87096C65.2385 4.78296 65.3008 4.67479 65.3301 4.54646C65.3595 4.41812 65.3521 4.29162 65.3081 4.16696C65.2641 4.04229 65.1945 3.93779 65.0991 3.85346C65.0038 3.76912 64.8901 3.71962 64.7581 3.70496L61.6781 3.25396L60.2921 0.404958Z" fill="#D1D5DB"/>
</g>
<g clip-path="url(#clip2_1_157)">
<g clip-path="url(#clip3_1_157)">
<path d="M6.79206 0.404958C6.73339 0.287624 6.64906 0.194124 6.53906 0.124457C6.42906 0.0547905 6.30806 0.0199575 6.17606 0.0199575C6.04406 0.0199575 5.92122 0.0547905 5.80756 0.124457C5.69389 0.194124 5.60772 0.287624 5.54906 0.404958L4.17406 3.25396L1.08306 3.70496C0.958391 3.71962 0.844725 3.76912 0.742058 3.85346C0.639391 3.93779 0.569725 4.04229 0.533058 4.16696C0.496391 4.29162 0.492725 4.41812 0.522058 4.54646C0.551391 4.67479 0.613725 4.78296 0.709058 4.87096L2.94206 7.09296L2.41406 10.217C2.39206 10.349 2.40672 10.4736 2.45806 10.591C2.50939 10.7083 2.58639 10.8073 2.68906 10.888C2.79172 10.9686 2.90906 11.0126 3.04106 11.02C3.17306 11.0273 3.29772 11.0016 3.41506 10.943L6.17606 9.46896L8.93706 10.943C9.05439 11.0016 9.17722 11.0273 9.30556 11.02C9.43389 11.0126 9.55306 10.9705 9.66306 10.8935C9.77306 10.8165 9.85189 10.7175 9.89956 10.5965C9.94722 10.4755 9.96006 10.349 9.93806 10.217L9.39906 7.09296L11.6431 4.87096C11.7384 4.78296 11.8007 4.67479 11.8301 4.54646C11.8594 4.41812 11.8521 4.29162 11.8081 4.16696C11.7641 4.04229 11.6944 3.93779 11.5991 3.85346C11.5037 3.76912 11.3901 3.71962 11.2581 3.70496L8.17806 3.25396L6.79206 0.404958Z" fill="#FACC15"/>
<path d="M20.1671 0.404958C20.1084 0.287624 20.0241 0.194124 19.9141 0.124457C19.8041 0.0547905 19.6831 0.0199575 19.5511 0.0199575C19.4191 0.0199575 19.2962 0.0547905 19.1826 0.124457C19.0689 0.194124 18.9827 0.287624 18.9241 0.404958L17.5491 3.25396L14.4581 3.70496C14.3334 3.71962 14.2197 3.76912 14.1171 3.85346C14.0144 3.93779 13.9447 4.04229 13.9081 4.16696C13.8714 4.29162 13.8677 4.41812 13.8971 4.54646C13.9264 4.67479 13.9887 4.78296 14.0841 4.87096L16.3171 7.09296L15.7891 10.217C15.7671 10.349 15.7817 10.4736 15.8331 10.591C15.8844 10.7083 15.9614 10.8073 16.0641 10.888C16.1667 10.9686 16.2841 11.0126 16.4161 11.02C16.5481 11.0273 16.6727 11.0016 16.7901 10.943L19.5511 9.46896L22.3121 10.943C22.4294 11.0016 22.5522 11.0273 22.6806 11.02C22.8089 11.0126 22.9281 10.9705 23.0381 10.8935C23.1481 10.8165 23.2269 10.7175 23.2746 10.5965C23.3222 10.4755 23.3351 10.349 23.3131 10.217L22.7741 7.09296L25.0181 4.87096C25.1134 4.78296 25.1757 4.67479 25.2051 4.54646C25.2344 4.41812 25.2271 4.29162 25.1831 4.16696C25.1391 4.04229 25.0694 3.93779 24.9741 3.85346C24.8787 3.76912 24.7651 3.71962 24.6331 3.70496L21.5531 3.25396L20.1671 0.404958Z" fill="#FACC15"/>
<path d="M33.5421 0.404958C33.4834 0.287624 33.3991 0.194124 33.2891 0.124457C33.1791 0.0547905 33.0581 0.0199575 32.9261 0.0199575C32.7941 0.0199575 32.6712 0.0547905 32.5576 0.124457C32.4439 0.194124 32.3577 0.287624 32.2991 0.404958L30.9241 3.25396L27.8331 3.70496C27.7084 3.71962 27.5947 3.76912 27.4921 3.85346C27.3894 3.93779 27.3197 4.04229 27.2831 4.16696C27.2464 4.29162 27.2427 4.41812 27.2721 4.54646C27.3014 4.67479 27.3637 4.78296 27.4591 4.87096L29.6921 7.09296L29.1641 10.217C29.1421 10.349 29.1567 10.4736 29.2081 10.591C29.2594 10.7083 29.3364 10.8073 29.4391 10.888C29.5417 10.9686 29.6591 11.0126 29.7911 11.02C29.9231 11.0273 30.0477 11.0016 30.1651 10.943L32.9261 9.46896L35.6871 10.943C35.8044 11.0016 35.9272 11.0273 36.0556 11.02C36.1839 11.0126 36.3031 10.9705 36.4131 10.8935C36.5231 10.8165 36.6019 10.7175 36.6496 10.5965C36.6972 10.4755 36.7101 10.349 36.6881 10.217L36.1491 7.09296L38.3931 4.87096C38.4884 4.78296 38.5507 4.67479 38.5801 4.54646C38.6094 4.41812 38.6021 4.29162 38.5581 4.16696C38.5141 4.04229 38.4444 3.93779 38.3491 3.85346C38.2537 3.76912 38.1401 3.71962 38.0081 3.70496L34.9281 3.25396L33.5421 0.404958Z" fill="#FACC15"/>
</g>
</g>
</g>
<defs>
<clipPath id="clip0_1_157">
<rect width="66.88" height="11" fill="white" transform="translate(0.5 0.0199585)"/>
</clipPath>
<clipPath id="clip1_1_157">
<rect width="66.88" height="11" fill="white" transform="matrix(1 0 0 -1 0.5 11.02)"/>
</clipPath>
<clipPath id="clip2_1_157">
<rect width="31.16" height="11" fill="white" transform="translate(0.5 0.0199585)"/>
</clipPath>
<clipPath id="clip3_1_157">
<rect width="66.88" height="11" fill="white" transform="matrix(1 0 0 -1 0.5 11.02)"/>
</clipPath>
</defs>
</svg>
