<svg width="67" height="12" viewBox="0 0 67 12" fill="none" xmlns="http://www.w3.org/2000/svg">
<g clip-path="url(#clip0_1_56)">
<g clip-path="url(#clip1_1_56)">
<path d="M6.292 0.404958C6.23333 0.287624 6.149 0.194124 6.039 0.124457C5.929 0.0547905 5.808 0.0199575 5.676 0.0199575C5.544 0.0199575 5.42116 0.0547905 5.3075 0.124457C5.19383 0.194124 5.10766 0.287624 5.049 0.404958L3.674 3.25396L0.582997 3.70496C0.45833 3.71962 0.344664 3.76912 0.241997 3.85346C0.13933 3.93779 0.0696636 4.04229 0.032997 4.16696C-0.00366971 4.29162 -0.00733637 4.41812 0.021997 4.54646C0.0513303 4.67479 0.113664 4.78296 0.208997 4.87096L2.442 7.09296L1.914 10.217C1.892 10.349 1.90666 10.4736 1.958 10.591C2.00933 10.7083 2.08633 10.8073 2.189 10.888C2.29166 10.9686 2.409 11.0126 2.541 11.02C2.673 11.0273 2.79766 11.0016 2.915 10.943L5.676 9.46896L8.437 10.943C8.55433 11.0016 8.67716 11.0273 8.8055 11.02C8.93383 11.0126 9.053 10.9705 9.163 10.8935C9.273 10.8165 9.35183 10.7175 9.3995 10.5965C9.44716 10.4755 9.46 10.349 9.438 10.217L8.899 7.09296L11.143 4.87096C11.2383 4.78296 11.3007 4.67479 11.33 4.54646C11.3593 4.41812 11.352 4.29162 11.308 4.16696C11.264 4.04229 11.1943 3.93779 11.099 3.85346C11.0037 3.76912 10.89 3.71962 10.758 3.70496L7.678 3.25396L6.292 0.404958Z" fill="#D1D5DB"/>
<path d="M19.6671 0.404958C19.6085 0.287624 19.5241 0.194124 19.4141 0.124457C19.3041 0.0547905 19.1831 0.0199575 19.0511 0.0199575C18.9191 0.0199575 18.7963 0.0547905 18.6826 0.124457C18.569 0.194124 18.4828 0.287624 18.4241 0.404958L17.0491 3.25396L13.9581 3.70496C13.8335 3.71962 13.7198 3.76912 13.6171 3.85346C13.5145 3.93779 13.4448 4.04229 13.4081 4.16696C13.3715 4.29162 13.3678 4.41812 13.3971 4.54646C13.4265 4.67479 13.4888 4.78296 13.5841 4.87096L15.8171 7.09296L15.2891 10.217C15.2671 10.349 15.2818 10.4736 15.3331 10.591C15.3845 10.7083 15.4615 10.8073 15.5641 10.888C15.6668 10.9686 15.7841 11.0126 15.9161 11.02C16.0481 11.0273 16.1728 11.0016 16.2901 10.943L19.0511 9.46896L21.8121 10.943C21.9295 11.0016 22.0523 11.0273 22.1806 11.02C22.309 11.0126 22.4281 10.9705 22.5381 10.8935C22.6481 10.8165 22.727 10.7175 22.7746 10.5965C22.8223 10.4755 22.8351 10.349 22.8131 10.217L22.2741 7.09296L24.5181 4.87096C24.6135 4.78296 24.6758 4.67479 24.7051 4.54646C24.7345 4.41812 24.7271 4.29162 24.6831 4.16696C24.6391 4.04229 24.5695 3.93779 24.4741 3.85346C24.3788 3.76912 24.2651 3.71962 24.1331 3.70496L21.0531 3.25396L19.6671 0.404958Z" fill="#D1D5DB"/>
<path d="M33.0421 0.404958C32.9835 0.287624 32.8991 0.194124 32.7891 0.124457C32.6791 0.0547905 32.5581 0.0199575 32.4261 0.0199575C32.2941 0.0199575 32.1713 0.0547905 32.0576 0.124457C31.944 0.194124 31.8578 0.287624 31.7991 0.404958L30.4241 3.25396L27.3331 3.70496C27.2085 3.71962 27.0948 3.76912 26.9921 3.85346C26.8895 3.93779 26.8198 4.04229 26.7831 4.16696C26.7465 4.29162 26.7428 4.41812 26.7721 4.54646C26.8015 4.67479 26.8638 4.78296 26.9591 4.87096L29.1921 7.09296L28.6641 10.217C28.6421 10.349 28.6568 10.4736 28.7081 10.591C28.7595 10.7083 28.8365 10.8073 28.9391 10.888C29.0418 10.9686 29.1591 11.0126 29.2911 11.02C29.4231 11.0273 29.5478 11.0016 29.6651 10.943L32.4261 9.46896L35.1871 10.943C35.3045 11.0016 35.4273 11.0273 35.5556 11.02C35.684 11.0126 35.8031 10.9705 35.9131 10.8935C36.0231 10.8165 36.102 10.7175 36.1496 10.5965C36.1973 10.4755 36.2101 10.349 36.1881 10.217L35.6491 7.09296L37.8931 4.87096C37.9885 4.78296 38.0508 4.67479 38.0801 4.54646C38.1095 4.41812 38.1021 4.29162 38.0581 4.16696C38.0141 4.04229 37.9445 3.93779 37.8491 3.85346C37.7538 3.76912 37.6401 3.71962 37.5081 3.70496L34.4281 3.25396L33.0421 0.404958Z" fill="#D1D5DB"/>
<path d="M46.4171 0.404958C46.3585 0.287624 46.2741 0.194124 46.1641 0.124457C46.0541 0.0547905 45.9331 0.0199575 45.8011 0.0199575C45.6691 0.0199575 45.5463 0.0547905 45.4326 0.124457C45.319 0.194124 45.2328 0.287624 45.1741 0.404958L43.7991 3.25396L40.7081 3.70496C40.5835 3.71962 40.4698 3.76912 40.3671 3.85346C40.2645 3.93779 40.1948 4.04229 40.1581 4.16696C40.1215 4.29162 40.1178 4.41812 40.1471 4.54646C40.1765 4.67479 40.2388 4.78296 40.3341 4.87096L42.5671 7.09296L42.0391 10.217C42.0171 10.349 42.0318 10.4736 42.0831 10.591C42.1345 10.7083 42.2115 10.8073 42.3141 10.888C42.4168 10.9686 42.5341 11.0126 42.6661 11.02C42.7981 11.0273 42.9228 11.0016 43.0401 10.943L45.8011 9.46896L48.5621 10.943C48.6795 11.0016 48.8023 11.0273 48.9306 11.02C49.059 11.0126 49.1781 10.9705 49.2881 10.8935C49.3981 10.8165 49.477 10.7175 49.5246 10.5965C49.5723 10.4755 49.5851 10.349 49.5631 10.217L49.0241 7.09296L51.2681 4.87096C51.3635 4.78296 51.4258 4.67479 51.4551 4.54646C51.4845 4.41812 51.4771 4.29162 51.4331 4.16696C51.3891 4.04229 51.3195 3.93779 51.2241 3.85346C51.1288 3.76912 51.0151 3.71962 50.8831 3.70496L47.8031 3.25396L46.4171 0.404958Z" fill="#D1D5DB"/>
<path d="M59.7921 0.404958C59.7335 0.287624 59.6491 0.194124 59.5391 0.124457C59.4291 0.0547905 59.3081 0.0199575 59.1761 0.0199575C59.0441 0.0199575 58.9213 0.0547905 58.8076 0.124457C58.694 0.194124 58.6078 0.287624 58.5491 0.404958L57.1741 3.25396L54.0831 3.70496C53.9585 3.71962 53.8448 3.76912 53.7421 3.85346C53.6395 3.93779 53.5698 4.04229 53.5331 4.16696C53.4965 4.29162 53.4928 4.41812 53.5221 4.54646C53.5515 4.67479 53.6138 4.78296 53.7091 4.87096L55.9421 7.09296L55.4141 10.217C55.3921 10.349 55.4068 10.4736 55.4581 10.591C55.5095 10.7083 55.5865 10.8073 55.6891 10.888C55.7918 10.9686 55.9091 11.0126 56.0411 11.02C56.1731 11.0273 56.2978 11.0016 56.4151 10.943L59.1761 9.46896L61.9371 10.943C62.0545 11.0016 62.1773 11.0273 62.3056 11.02C62.434 11.0126 62.5531 10.9705 62.6631 10.8935C62.7731 10.8165 62.852 10.7175 62.8996 10.5965C62.9473 10.4755 62.9601 10.349 62.9381 10.217L62.3991 7.09296L64.6431 4.87096C64.7385 4.78296 64.8008 4.67479 64.8301 4.54646C64.8595 4.41812 64.8521 4.29162 64.8081 4.16696C64.7641 4.04229 64.6945 3.93779 64.5991 3.85346C64.5038 3.76912 64.3901 3.71962 64.2581 3.70496L61.1781 3.25396L59.7921 0.404958Z" fill="#D1D5DB"/>
</g>
<g clip-path="url(#clip2_1_56)">
<g clip-path="url(#clip3_1_56)">
<path d="M6.292 0.404958C6.23333 0.287624 6.149 0.194124 6.039 0.124457C5.929 0.0547905 5.808 0.0199575 5.676 0.0199575C5.544 0.0199575 5.42116 0.0547905 5.3075 0.124457C5.19383 0.194124 5.10766 0.287624 5.049 0.404958L3.674 3.25396L0.582997 3.70496C0.45833 3.71962 0.344664 3.76912 0.241997 3.85346C0.13933 3.93779 0.0696636 4.04229 0.032997 4.16696C-0.00366971 4.29162 -0.00733637 4.41812 0.021997 4.54646C0.0513303 4.67479 0.113664 4.78296 0.208997 4.87096L2.442 7.09296L1.914 10.217C1.892 10.349 1.90666 10.4736 1.958 10.591C2.00933 10.7083 2.08633 10.8073 2.189 10.888C2.29166 10.9686 2.409 11.0126 2.541 11.02C2.673 11.0273 2.79766 11.0016 2.915 10.943L5.676 9.46896L8.437 10.943C8.55433 11.0016 8.67716 11.0273 8.8055 11.02C8.93383 11.0126 9.053 10.9705 9.163 10.8935C9.273 10.8165 9.35183 10.7175 9.3995 10.5965C9.44716 10.4755 9.46 10.349 9.438 10.217L8.899 7.09296L11.143 4.87096C11.2383 4.78296 11.3007 4.67479 11.33 4.54646C11.3593 4.41812 11.352 4.29162 11.308 4.16696C11.264 4.04229 11.1943 3.93779 11.099 3.85346C11.0037 3.76912 10.89 3.71962 10.758 3.70496L7.678 3.25396L6.292 0.404958Z" fill="#FACC15"/>
<path d="M19.6671 0.404958C19.6085 0.287624 19.5241 0.194124 19.4141 0.124457C19.3041 0.0547905 19.1831 0.0199575 19.0511 0.0199575C18.9191 0.0199575 18.7963 0.0547905 18.6826 0.124457C18.569 0.194124 18.4828 0.287624 18.4241 0.404958L17.0491 3.25396L13.9581 3.70496C13.8335 3.71962 13.7198 3.76912 13.6171 3.85346C13.5145 3.93779 13.4448 4.04229 13.4081 4.16696C13.3715 4.29162 13.3678 4.41812 13.3971 4.54646C13.4265 4.67479 13.4888 4.78296 13.5841 4.87096L15.8171 7.09296L15.2891 10.217C15.2671 10.349 15.2818 10.4736 15.3331 10.591C15.3845 10.7083 15.4615 10.8073 15.5641 10.888C15.6668 10.9686 15.7841 11.0126 15.9161 11.02C16.0481 11.0273 16.1728 11.0016 16.2901 10.943L19.0511 9.46896L21.8121 10.943C21.9295 11.0016 22.0523 11.0273 22.1806 11.02C22.309 11.0126 22.4281 10.9705 22.5381 10.8935C22.6481 10.8165 22.727 10.7175 22.7746 10.5965C22.8223 10.4755 22.8351 10.349 22.8131 10.217L22.2741 7.09296L24.5181 4.87096C24.6135 4.78296 24.6758 4.67479 24.7051 4.54646C24.7345 4.41812 24.7271 4.29162 24.6831 4.16696C24.6391 4.04229 24.5695 3.93779 24.4741 3.85346C24.3788 3.76912 24.2651 3.71962 24.1331 3.70496L21.0531 3.25396L19.6671 0.404958Z" fill="#FACC15"/>
<path d="M33.0421 0.404958C32.9835 0.287624 32.8991 0.194124 32.7891 0.124457C32.6791 0.0547905 32.5581 0.0199575 32.4261 0.0199575C32.2941 0.0199575 32.1713 0.0547905 32.0576 0.124457C31.944 0.194124 31.8578 0.287624 31.7991 0.404958L30.4241 3.25396L27.3331 3.70496C27.2085 3.71962 27.0948 3.76912 26.9921 3.85346C26.8895 3.93779 26.8198 4.04229 26.7831 4.16696C26.7465 4.29162 26.7428 4.41812 26.7721 4.54646C26.8015 4.67479 26.8638 4.78296 26.9591 4.87096L29.1921 7.09296L28.6641 10.217C28.6421 10.349 28.6568 10.4736 28.7081 10.591C28.7595 10.7083 28.8365 10.8073 28.9391 10.888C29.0418 10.9686 29.1591 11.0126 29.2911 11.02C29.4231 11.0273 29.5478 11.0016 29.6651 10.943L32.4261 9.46896L35.1871 10.943C35.3045 11.0016 35.4273 11.0273 35.5556 11.02C35.684 11.0126 35.8031 10.9705 35.9131 10.8935C36.0231 10.8165 36.102 10.7175 36.1496 10.5965C36.1973 10.4755 36.2101 10.349 36.1881 10.217L35.6491 7.09296L37.8931 4.87096C37.9885 4.78296 38.0508 4.67479 38.0801 4.54646C38.1095 4.41812 38.1021 4.29162 38.0581 4.16696C38.0141 4.04229 37.9445 3.93779 37.8491 3.85346C37.7538 3.76912 37.6401 3.71962 37.5081 3.70496L34.4281 3.25396L33.0421 0.404958Z" fill="#FACC15"/>
<path d="M46.4171 0.404958C46.3585 0.287624 46.2741 0.194124 46.1641 0.124457C46.0541 0.0547905 45.9331 0.0199575 45.8011 0.0199575C45.6691 0.0199575 45.5463 0.0547905 45.4326 0.124457C45.319 0.194124 45.2328 0.287624 45.1741 0.404958L43.7991 3.25396L40.7081 3.70496C40.5835 3.71962 40.4698 3.76912 40.3671 3.85346C40.2645 3.93779 40.1948 4.04229 40.1581 4.16696C40.1215 4.29162 40.1178 4.41812 40.1471 4.54646C40.1765 4.67479 40.2388 4.78296 40.3341 4.87096L42.5671 7.09296L42.0391 10.217C42.0171 10.349 42.0318 10.4736 42.0831 10.591C42.1345 10.7083 42.2115 10.8073 42.3141 10.888C42.4168 10.9686 42.5341 11.0126 42.6661 11.02C42.7981 11.0273 42.9228 11.0016 43.0401 10.943L45.8011 9.46896L48.5621 10.943C48.6795 11.0016 48.8023 11.0273 48.9306 11.02C49.059 11.0126 49.1781 10.9705 49.2881 10.8935C49.3981 10.8165 49.477 10.7175 49.5246 10.5965C49.5723 10.4755 49.5851 10.349 49.5631 10.217L49.0241 7.09296L51.2681 4.87096C51.3635 4.78296 51.4258 4.67479 51.4551 4.54646C51.4845 4.41812 51.4771 4.29162 51.4331 4.16696C51.3891 4.04229 51.3195 3.93779 51.2241 3.85346C51.1288 3.76912 51.0151 3.71962 50.8831 3.70496L47.8031 3.25396L46.4171 0.404958Z" fill="#FACC15"/>
<path d="M59.7921 0.404958C59.7335 0.287624 59.6491 0.194124 59.5391 0.124457C59.4291 0.0547905 59.3081 0.0199575 59.1761 0.0199575C59.0441 0.0199575 58.9213 0.0547905 58.8076 0.124457C58.694 0.194124 58.6078 0.287624 58.5491 0.404958L57.1741 3.25396L54.0831 3.70496C53.9585 3.71962 53.8448 3.76912 53.7421 3.85346C53.6395 3.93779 53.5698 4.04229 53.5331 4.16696C53.4965 4.29162 53.4928 4.41812 53.5221 4.54646C53.5515 4.67479 53.6138 4.78296 53.7091 4.87096L55.9421 7.09296L55.4141 10.217C55.3921 10.349 55.4068 10.4736 55.4581 10.591C55.5095 10.7083 55.5865 10.8073 55.6891 10.888C55.7918 10.9686 55.9091 11.0126 56.0411 11.02C56.1731 11.0273 56.2978 11.0016 56.4151 10.943L59.1761 9.46896L61.9371 10.943C62.0545 11.0016 62.1773 11.0273 62.3056 11.02C62.434 11.0126 62.5531 10.9705 62.6631 10.8935C62.7731 10.8165 62.852 10.7175 62.8996 10.5965C62.9473 10.4755 62.9601 10.349 62.9381 10.217L62.3991 7.09296L64.6431 4.87096C64.7385 4.78296 64.8008 4.67479 64.8301 4.54646C64.8595 4.41812 64.8521 4.29162 64.8081 4.16696C64.7641 4.04229 64.6945 3.93779 64.5991 3.85346C64.5038 3.76912 64.3901 3.71962 64.2581 3.70496L61.1781 3.25396L59.7921 0.404958Z" fill="#FACC15"/>
</g>
</g>
</g>
<defs>
<clipPath id="clip0_1_56">
<rect width="66.88" height="11" fill="white" transform="translate(0 0.0199585)"/>
</clipPath>
<clipPath id="clip1_1_56">
<rect width="66.88" height="11" fill="white" transform="matrix(1 0 0 -1 0 11.02)"/>
</clipPath>
<clipPath id="clip2_1_56">
<rect width="57.91" height="11" fill="white" transform="translate(0 0.0199585)"/>
</clipPath>
<clipPath id="clip3_1_56">
<rect width="66.88" height="11" fill="white" transform="matrix(1 0 0 -1 0 11.02)"/>
</clipPath>
</defs>
</svg>
