<svg width="37" height="37" viewBox="0 0 37 37" fill="none" xmlns="http://www.w3.org/2000/svg">
<rect x="0.5" y="0.0301514" width="36" height="36" rx="6" fill="white"/>
<path d="M18.668 14.4302C18.0173 14.4302 17.4173 14.5929 16.868 14.9182C16.3187 15.2435 15.8813 15.6809 15.556 16.2302C15.2307 16.7795 15.068 17.3795 15.068 18.0302C15.068 18.6809 15.2307 19.2809 15.556 19.8302C15.8813 20.3795 16.3187 20.8142 16.868 21.1342C17.4173 21.4542 18.0173 21.6142 18.668 21.6142C19.3187 21.6142 19.9187 21.4542 20.468 21.1342C21.0173 20.8142 21.452 20.3795 21.772 19.8302C22.092 19.2809 22.252 18.6809 22.252 18.0302C22.252 17.3795 22.092 16.7795 21.772 16.2302C21.452 15.6809 21.0173 15.2435 20.468 14.9182C19.9187 14.5929 19.3187 14.4302 18.668 14.4302ZM18.668 20.3662C18.2413 20.3662 17.8493 20.2622 17.492 20.0542C17.1347 19.8462 16.852 19.5609 16.644 19.1982C16.436 18.8355 16.332 18.4462 16.332 18.0302C16.332 17.6142 16.436 17.2249 16.644 16.8622C16.852 16.4995 17.1347 16.2142 17.492 16.0062C17.8493 15.7982 18.2413 15.6942 18.668 15.6942C19.0947 15.6942 19.4867 15.7982 19.844 16.0062C20.2013 16.2142 20.484 16.4969 20.692 16.8542C20.9 17.2115 21.004 17.6035 21.004 18.0302C21.004 18.4569 20.9 18.8489 20.692 19.2062C20.484 19.5635 20.1987 19.8462 19.836 20.0542C19.4733 20.2622 19.084 20.3662 18.668 20.3662ZM23.244 14.2862C23.244 14.5209 23.1613 14.7209 22.996 14.8862C22.8307 15.0515 22.6307 15.1342 22.396 15.1342C22.1613 15.1342 21.964 15.0515 21.804 14.8862C21.644 14.7209 21.564 14.5209 21.564 14.2862C21.564 14.0515 21.644 13.8542 21.804 13.6942C21.964 13.5342 22.1613 13.4542 22.396 13.4542C22.6307 13.4542 22.8307 13.5342 22.996 13.6942C23.1613 13.8542 23.244 14.0515 23.244 14.2862ZM25.612 15.1342C25.5907 14.5262 25.5 13.9982 25.34 13.5502C25.1587 13.0382 24.8733 12.5902 24.484 12.2062C24.0947 11.8222 23.644 11.5395 23.132 11.3582C22.684 11.1982 22.156 11.1022 21.548 11.0702C20.972 11.0382 20.0093 11.0222 18.66 11.0222C17.3107 11.0222 16.348 11.0382 15.772 11.0702C15.1533 11.1022 14.6253 11.1982 14.188 11.3582C13.676 11.5395 13.228 11.8222 12.844 12.2062C12.46 12.5902 12.1773 13.0382 11.996 13.5502C11.8253 13.9982 11.7293 14.5262 11.708 15.1342C11.676 15.7102 11.66 16.6729 11.66 18.0222C11.66 19.3715 11.676 20.3342 11.708 20.9102C11.7293 21.5182 11.82 22.0462 11.98 22.4942C12.1613 23.0062 12.4493 23.4595 12.844 23.8542C13.2387 24.2489 13.692 24.5315 14.204 24.7022C14.6307 24.8622 15.1533 24.9529 15.772 24.9742C16.348 25.0169 17.3107 25.0382 18.66 25.0382C20.0093 25.0382 20.972 25.0169 21.548 24.9742C22.156 24.9529 22.684 24.8622 23.132 24.7022C23.644 24.5209 24.0947 24.2355 24.484 23.8462C24.8733 23.4569 25.1587 23.0062 25.34 22.4942C25.5 22.0462 25.5907 21.5182 25.612 20.9102C25.644 20.3342 25.66 19.3742 25.66 18.0302C25.66 16.6862 25.644 15.7209 25.612 15.1342ZM24.124 22.1582C24.0067 22.4569 23.8333 22.7235 23.604 22.9582C23.3747 23.1929 23.1053 23.3689 22.796 23.4862C22.444 23.6249 21.8733 23.7155 21.084 23.7582C20.636 23.7795 19.9907 23.7849 19.148 23.7742H18.188C17.3453 23.7849 16.7 23.7795 16.252 23.7582C15.452 23.7155 14.8813 23.6249 14.54 23.4862C14.2307 23.3689 13.9613 23.1955 13.732 22.9662C13.5027 22.7369 13.3293 22.4675 13.212 22.1582C13.0733 21.8062 12.9827 21.2355 12.94 20.4462C12.9187 19.9982 12.9133 19.3529 12.924 18.5102V17.5502C12.9133 16.7075 12.9187 16.0622 12.94 15.6142C12.9827 14.8142 13.0733 14.2435 13.212 13.9022C13.3293 13.5929 13.5027 13.3235 13.732 13.0942C13.9613 12.8649 14.2307 12.6915 14.54 12.5742C14.8813 12.4355 15.4467 12.3449 16.236 12.3022C16.684 12.2809 17.3347 12.2755 18.188 12.2862H19.148C19.9907 12.2755 20.636 12.2809 21.084 12.3022C21.8733 12.3449 22.444 12.4355 22.796 12.5742C23.1053 12.6915 23.3747 12.8649 23.604 13.0942C23.8333 13.3235 24.0067 13.5929 24.124 13.9022C24.2627 14.2435 24.3533 14.8089 24.396 15.5982C24.4173 16.0462 24.4227 16.6969 24.412 17.5502V18.5102C24.4227 19.3529 24.4173 19.9982 24.396 20.4462C24.3533 21.2355 24.2627 21.8062 24.124 22.1582Z" fill="#FD1D1D"/>
</svg>
