<svg width="64" height="16" viewBox="0 0 64 16" fill="none" xmlns="http://www.w3.org/2000/svg">
<g clip-path="url(#clip0_1_805)">
<mask id="mask0_1_805" style="mask-type:luminance" maskUnits="userSpaceOnUse" x="0" y="1" width="64" height="15">
<path d="M63.2 1.43042H0.5V15.4304H63.2V1.43042Z" fill="white"/>
</mask>
<g mask="url(#mask0_1_805)">
<path d="M11.6 1.43042H8.59995C8.59995 3.93042 7.39995 6.23042 5.39995 7.73042L4.19995 8.73042L8.89995 15.1304H12.8L8.39995 9.23042C10.5 7.23042 11.6 4.43042 11.6 1.43042Z" fill="black"/>
<path d="M3.79995 1.43042H0.699951V15.1304H3.79995V1.43042Z" fill="black"/>
<path d="M16.7 1.43042H13.7V15.1304H16.7V1.43042Z" fill="black"/>
<path d="M42.5999 5.43042C41.4999 5.43042 40.3999 5.73042 39.6999 6.73042V5.73042H36.8999V15.1304H39.7999V10.1304C39.7999 8.73042 40.7999 8.03042 41.8999 8.03042C43.0999 8.03042 43.8999 8.73042 43.8999 10.1304V15.1304H46.6999V9.13042C46.5999 6.93042 44.8999 5.43042 42.5999 5.43042Z" fill="black"/>
<path d="M25.5999 5.73042V6.33042C24.7999 5.73042 23.7999 5.43042 22.7999 5.43042C19.9999 5.43042 17.7999 7.63042 17.7999 10.4304C17.7999 13.2304 19.9999 15.4304 22.7999 15.4304C23.7999 15.4304 24.7999 15.1304 25.5999 14.5304V15.1304H28.3999V5.73042H25.5999ZM22.9999 12.8304C21.5999 12.8304 20.3999 11.7304 20.3999 10.4304C20.3999 9.13042 21.4999 8.03042 22.9999 8.03042C24.4999 8.03042 25.5999 9.13042 25.5999 10.4304C25.5999 11.7304 24.3999 12.8304 22.9999 12.8304Z" fill="black"/>
<path d="M32.7999 6.93047V5.73047H29.8999V15.1305H32.7999V10.7305C32.7999 9.23047 34.3999 8.43047 35.4999 8.43047V5.73047C34.3999 5.73047 33.3999 6.13047 32.7999 6.93047Z" fill="black"/>
<path d="M55.4 5.73042V6.33042C54.6 5.73042 53.7 5.43042 52.6 5.43042C49.8 5.43042 47.6 7.63042 47.6 10.4304C47.6 13.2304 49.8 15.4304 52.6 15.4304C53.6 15.4304 54.6 15.1304 55.4 14.5304V15.1304H58.2V5.73042H55.4ZM52.9 12.8304C51.5 12.8304 50.3 11.7304 50.3 10.4304C50.3 9.13042 51.4 8.03042 52.9 8.03042C54.3 8.03042 55.5 9.13042 55.5 10.4304C55.4 11.7304 54.3 12.8304 52.9 12.8304Z" fill="black"/>
<path d="M60.4 5.93047C60.4 5.83047 60.3 5.73047 60.2 5.73047H59.9V6.43047H60V6.23047H60.1L60.3 6.43047H60.4L60.3 6.13047C60.4 6.13047 60.4 6.03047 60.4 5.93047ZM60.2 6.03047H60.1V5.83047H60.2C60.3 5.83047 60.3 5.83047 60.3 5.93047C60.3 6.03047 60.3 6.03047 60.2 6.03047Z" fill="black"/>
<path d="M60.2 5.43042C59.8 5.43042 59.5 5.73042 59.5 6.13042C59.5 6.53042 59.8 6.83042 60.2 6.83042C60.6 6.83042 60.9 6.53042 60.9 6.13042C60.9 5.73042 60.5 5.43042 60.2 5.43042ZM60.2 6.63042C59.9 6.63042 59.7 6.43042 59.7 6.03042C59.7 5.73042 59.9 5.43042 60.2 5.43042C60.5 5.43042 60.7 5.63042 60.7 6.03042C60.7 6.43042 60.4 6.63042 60.2 6.63042Z" fill="black"/>
<path d="M61.3 11.8304C60.3 11.8304 59.5 12.6304 59.5 13.6304C59.5 14.6304 60.3 15.4304 61.3 15.4304C62.3 15.4304 63.1 14.6304 63.1 13.6304C63.1 12.5304 62.3 11.8304 61.3 11.8304Z" fill="black"/>
</g>
</g>
<defs>
<clipPath id="clip0_1_805">
<rect width="64" height="15" fill="white" transform="translate(0 0.8302)"/>
</clipPath>
</defs>
</svg>
