<svg width="37" height="37" viewBox="0 0 37 37" fill="none" xmlns="http://www.w3.org/2000/svg">
<rect x="0.5" y="0.0301514" width="36" height="36" rx="6" fill="white"/>
<g clip-path="url(#clip0_1_768)">
<path d="M15.0375 23.6552H12.3225V14.8952H15.0375V23.6552ZM13.6725 13.6952C13.3925 13.6952 13.13 13.6227 12.885 13.4777C12.64 13.3327 12.4475 13.1402 12.3075 12.9002C12.1675 12.6602 12.0975 12.3952 12.0975 12.1052C12.0975 11.8152 12.1675 11.5502 12.3075 11.3102C12.4475 11.0702 12.6375 10.8802 12.8775 10.7402C13.1175 10.6002 13.3825 10.5302 13.6725 10.5302C13.9625 10.5302 14.2275 10.6002 14.4675 10.7402C14.7075 10.8802 14.8975 11.0702 15.0375 11.3102C15.1775 11.5502 15.2475 11.8152 15.2475 12.1052C15.2475 12.3952 15.1775 12.6602 15.0375 12.9002C14.8975 13.1402 14.705 13.3327 14.46 13.4777C14.215 13.6227 13.9525 13.6952 13.6725 13.6952ZM25.2225 23.6552H22.5075V19.3952C22.5075 18.9352 22.4875 18.5852 22.4475 18.3452C22.3875 17.9552 22.2625 17.6552 22.0725 17.4452C21.8525 17.1952 21.5275 17.0702 21.0975 17.0702C20.4475 17.0702 19.9975 17.3002 19.7475 17.7602C19.5575 18.1102 19.4625 18.6302 19.4625 19.3202V23.6552H16.7475V14.8952H19.3575V16.0802H19.3875C19.5875 15.7002 19.8975 15.3802 20.3175 15.1202C20.7975 14.8202 21.3475 14.6702 21.9675 14.6702C22.8375 14.6702 23.5275 14.8552 24.0375 15.2252C24.4875 15.5552 24.8025 16.0502 24.9825 16.7102C25.1425 17.2602 25.2225 17.9702 25.2225 18.8402V23.6552Z" fill="#0077B5"/>
</g>
<defs>
<clipPath id="clip0_1_768">
<rect width="15" height="15" fill="white" transform="matrix(1 0 0 -1 11 25.5302)"/>
</clipPath>
</defs>
</svg>
