<svg width="24" height="25" viewBox="0 0 24 25" fill="none" xmlns="http://www.w3.org/2000/svg">
<path d="M8.96803 1.48594C7.38403 1.48594 5.91203 1.88594 4.55203 2.68594C3.22403 3.45394 2.16803 4.50194 1.38403 5.82994C0.568034 7.20594 0.160034 8.69394 0.160034 10.2939C0.160034 12.0059 0.744034 13.8219 1.91203 15.7419C2.79203 17.1979 3.96803 18.6699 5.44003 20.1579C6.24003 20.9579 7.15203 21.7899 8.17603 22.6539L8.46403 22.8939C8.51203 22.9419 8.58403 22.9859 8.68003 23.0259C8.77603 23.0659 8.87603 23.0859 8.98003 23.0859C9.08403 23.0859 9.17203 23.0739 9.24403 23.0499C9.31603 23.0259 9.39203 22.9739 9.47203 22.8939L9.76003 22.6539C10.784 21.7899 11.696 20.9579 12.496 20.1579C13.968 18.6699 15.144 17.1979 16.024 15.7419C17.192 13.8219 17.776 12.0059 17.776 10.2939C17.776 8.69394 17.368 7.20594 16.552 5.82994C15.768 4.50194 14.712 3.45394 13.384 2.68594C12.024 1.88594 10.552 1.48594 8.96803 1.48594ZM8.96803 21.1899C8.12003 20.5019 7.25603 19.7099 6.37603 18.8139C5.08003 17.4539 4.04803 16.1259 3.28003 14.8299C2.27203 13.1499 1.76803 11.6059 1.76803 10.1979C1.76803 8.88594 2.09603 7.66994 2.75203 6.54994C3.37603 5.46194 4.23203 4.60594 5.32003 3.98194C6.44003 3.32594 7.65603 2.99794 8.96803 2.99794C10.28 2.99794 11.496 3.33394 12.616 4.00594C13.704 4.64594 14.568 5.51794 15.208 6.62194C15.848 7.72594 16.168 8.91794 16.168 10.1979C16.168 11.6539 15.664 13.2219 14.656 14.9019C13.888 16.1819 12.856 17.4939 11.56 18.8379C10.712 19.7019 9.84803 20.4859 8.96803 21.1899ZM8.96803 6.47794C8.28003 6.47794 7.64803 6.64994 7.07203 6.99394C6.49603 7.33794 6.03603 7.80194 5.69203 8.38594C5.34803 8.96994 5.17603 9.60594 5.17603 10.2939C5.17603 10.9819 5.34803 11.6179 5.69203 12.2019C6.03603 12.7859 6.49603 13.2459 7.07203 13.5819C7.64803 13.9179 8.28003 14.0859 8.96803 14.0859C9.65603 14.0859 10.292 13.9139 10.876 13.5699C11.46 13.2259 11.92 12.7659 12.256 12.1899C12.592 11.6139 12.76 10.9819 12.76 10.2939C12.76 9.60594 12.592 8.96994 12.256 8.38594C11.92 7.80194 11.46 7.33794 10.876 6.99394C10.292 6.64994 9.65603 6.47794 8.96803 6.47794ZM8.96803 12.4779C8.36003 12.4779 7.84003 12.2619 7.40803 11.8299C6.97603 11.3979 6.76003 10.8859 6.76003 10.2939C6.76003 9.89394 6.86003 9.52594 7.06003 9.18994C7.26003 8.85394 7.52803 8.58594 7.86403 8.38594C8.20003 8.18594 8.56803 8.08594 8.96803 8.08594C9.36803 8.08594 9.73603 8.18594 10.072 8.38594C10.408 8.58594 10.676 8.85394 10.876 9.18994C11.076 9.52594 11.176 9.89394 11.176 10.2939C11.176 10.8859 10.96 11.3979 10.528 11.8299C10.096 12.2619 9.57603 12.4779 8.96803 12.4779Z" fill="#030712"/>
</svg>
