<svg width="53" height="16" viewBox="0 0 53 16" fill="none" xmlns="http://www.w3.org/2000/svg">
<g clip-path="url(#clip0_1_788)">
<mask id="mask0_1_788" style="mask-type:luminance" maskUnits="userSpaceOnUse" x="0" y="1" width="53" height="15">
<path d="M52.5 1.43042H0V15.4304H52.5V1.43042Z" fill="white"/>
</mask>
<g mask="url(#mask0_1_788)">
<path d="M6.63753 1.54297H2.61253C2.33753 1.54297 2.10003 1.74296 2.06253 2.01796L0.437533 12.3179C0.400033 12.5179 0.562533 12.7054 0.775033 12.7054H2.70003C2.97503 12.7054 3.21253 12.5055 3.25003 12.2305L3.68753 9.45546C3.72503 9.18046 3.96253 8.98047 4.23753 8.98047H5.50003C8.15003 8.98047 9.67503 7.70548 10.0751 5.15548C10.2501 4.04298 10.0876 3.16797 9.56253 2.55547C8.98753 1.90547 7.97503 1.54297 6.63753 1.54297ZM7.10003 5.31797C6.87503 6.75547 5.77503 6.75547 4.71253 6.75547H4.10003L4.52503 4.06797C4.55003 3.90547 4.68753 3.78048 4.85003 3.78048H5.12503C5.85003 3.78048 6.53753 3.78047 6.88753 4.19297C7.11253 4.44297 7.17503 4.80547 7.10003 5.31797Z" fill="#283B82"/>
<path d="M18.6501 5.26794H16.7251C16.5626 5.26794 16.4251 5.39295 16.4001 5.55545L16.3126 6.09296L16.1751 5.89294C15.7626 5.29294 14.8251 5.08044 13.9001 5.08044C11.7751 5.08044 9.96256 6.69294 9.60006 8.95544C9.41256 10.0804 9.67506 11.1555 10.3126 11.918C10.9001 12.6055 11.7376 12.8929 12.7376 12.8929C14.4501 12.8929 15.4001 11.793 15.4001 11.793L15.3126 12.3304C15.2751 12.5304 15.4376 12.718 15.6376 12.718H17.3751C17.6501 12.718 17.8876 12.518 17.9251 12.243L18.9626 5.65546C19.0126 5.45546 18.8501 5.26794 18.6501 5.26794ZM15.9626 9.01794C15.7751 10.1179 14.9001 10.8555 13.7876 10.8555C13.2251 10.8555 12.7876 10.6804 12.5001 10.3304C12.2126 9.99294 12.1126 9.51795 12.2001 8.98045C12.3751 7.89295 13.2626 7.13045 14.3626 7.13045C14.9126 7.13045 15.3501 7.31796 15.6501 7.65546C15.9251 7.99296 16.0501 8.48044 15.9626 9.01794Z" fill="#283B82"/>
<path d="M28.9001 5.26794H26.9626C26.7751 5.26794 26.6001 5.35544 26.5001 5.51794L23.8376 9.44295L22.7126 5.66795C22.6376 5.43045 22.4251 5.26794 22.1751 5.26794H20.2751C20.0501 5.26794 19.8876 5.49294 19.9626 5.70544L22.0876 11.9554L20.0876 14.7804C19.9251 15.0054 20.0876 15.3054 20.3626 15.3054H22.3001C22.4876 15.3054 22.6501 15.2179 22.7626 15.0679L29.2001 5.78046C29.3251 5.56796 29.1626 5.26794 28.9001 5.26794Z" fill="#283B82"/>
<path d="M35.3 1.54297H31.275C31 1.54297 30.7625 1.74296 30.725 2.01796L29.1 12.3179C29.0625 12.5179 29.225 12.7054 29.425 12.7054H31.5C31.6875 12.7054 31.85 12.5679 31.8875 12.3804L32.35 9.45546C32.3875 9.18046 32.625 8.98047 32.9 8.98047H34.175C36.825 8.98047 38.35 7.70548 38.75 5.15548C38.925 4.04298 38.7625 3.16797 38.2375 2.55547C37.6625 1.90547 36.65 1.54297 35.3 1.54297ZM35.7625 5.31797C35.5375 6.75547 34.4375 6.75547 33.375 6.75547H32.775L33.2 4.06797C33.225 3.90547 33.3625 3.78048 33.525 3.78048H33.8C34.525 3.78048 35.2125 3.78047 35.5625 4.19297C35.775 4.44297 35.8375 4.80547 35.7625 5.31797Z" fill="#469BDB"/>
<path d="M47.3125 5.26794H45.3875C45.225 5.26794 45.0875 5.39295 45.0625 5.55545L44.975 6.09296L44.8375 5.89294C44.425 5.29294 43.4875 5.08044 42.5625 5.08044C40.4375 5.08044 38.625 6.69294 38.2625 8.95544C38.075 10.0804 38.3375 11.1555 38.975 11.918C39.5625 12.6055 40.4 12.8929 41.4 12.8929C43.1125 12.8929 44.0625 11.793 44.0625 11.793L43.975 12.3304C43.9375 12.5304 44.1 12.718 44.3125 12.718H46.05C46.325 12.718 46.5625 12.518 46.6 12.243L47.6375 5.65546C47.675 5.45546 47.5125 5.26794 47.3125 5.26794ZM44.625 9.01794C44.4375 10.1179 43.5625 10.8555 42.45 10.8555C41.8875 10.8555 41.45 10.6804 41.1625 10.3304C40.875 9.99294 40.775 9.51795 40.8625 8.98045C41.0375 7.89295 41.925 7.13045 43.025 7.13045C43.575 7.13045 44.0125 7.31796 44.3125 7.65546C44.6 7.99296 44.7125 8.48044 44.625 9.01794Z" fill="#469BDB"/>
<path d="M49.5751 1.83042L47.9251 12.3304C47.8876 12.5304 48.0501 12.7179 48.2501 12.7179H49.9126C50.1876 12.7179 50.4251 12.5179 50.4626 12.2429L52.0876 1.94293C52.1251 1.74292 51.9626 1.55543 51.7626 1.55543H49.9001C49.7501 1.54293 49.6126 1.66792 49.5751 1.83042Z" fill="#469BDB"/>
</g>
</g>
<defs>
<clipPath id="clip0_1_788">
<rect width="53" height="15" fill="white" transform="translate(0 0.8302)"/>
</clipPath>
</defs>
</svg>
