<svg width="28" height="29" viewBox="0 0 28 29" fill="none" xmlns="http://www.w3.org/2000/svg">
<path d="M22.3433 16.6262C21.1299 16.4956 20.1219 16.2249 19.3193 15.8142C18.7406 15.5902 18.1479 15.5482 17.5413 15.6882C16.9346 15.8282 16.3979 16.1036 15.9313 16.5142L14.8673 17.6902C12.5153 16.1596 10.5739 14.2182 9.04326 11.8662L10.1073 10.8022C10.5553 10.3542 10.8399 9.82689 10.9613 9.22022C11.0826 8.61356 11.0313 8.01156 10.8073 7.41422C10.4713 6.53689 10.2379 5.52889 10.1073 4.39022C9.97659 3.62489 9.59859 2.98556 8.97326 2.47222C8.34793 1.95889 7.63393 1.70222 6.83126 1.70222H3.10726C2.52859 1.73956 2.01059 1.92622 1.55326 2.26222C1.09593 2.59822 0.74126 3.02756 0.48926 3.55022C0.23726 4.07289 0.129927 4.62356 0.16726 5.20222C0.353927 7.06889 0.764593 8.89356 1.39926 10.6762C2.03393 12.4589 2.87393 14.1342 3.91926 15.7022C5.78593 18.6516 8.19393 21.0596 11.1433 22.9262C12.7299 23.9156 14.4099 24.7276 16.1833 25.3622C17.9566 25.9969 19.7766 26.4356 21.6433 26.6782H22.0073C22.3993 26.6782 22.7913 26.5942 23.1833 26.4262C23.5753 26.2582 23.9206 26.0296 24.2193 25.7402C24.5179 25.4509 24.7466 25.1102 24.9053 24.7182C25.0639 24.3262 25.1433 23.9249 25.1433 23.5142V20.0142C25.1433 19.1556 24.8819 18.4089 24.3593 17.7742C23.8366 17.1396 23.1646 16.7569 22.3433 16.6262ZM23.2673 19.9022V23.4022C23.2673 23.7942 23.1179 24.1489 22.8193 24.4662C22.4833 24.7649 22.1286 24.9142 21.7553 24.9142H21.6433C19.9259 24.7462 18.2553 24.3729 16.6313 23.7942C14.9513 23.1969 13.3926 22.4036 11.9553 21.4142C10.6299 20.5556 9.39326 19.5522 8.24526 18.4042C7.09726 17.2562 6.08459 16.0102 5.20726 14.6662C4.27393 13.2102 3.51326 11.6609 2.92526 10.0182C2.33726 8.37556 1.93126 6.69556 1.70726 4.97822C1.76326 4.54889 1.93126 4.18956 2.21126 3.90022C2.49126 3.61089 2.82726 3.46622 3.21926 3.46622H6.83126C7.18593 3.46622 7.50793 3.59222 7.79726 3.84422C8.08659 4.09622 8.23126 4.39022 8.23126 4.72622C8.26859 5.21156 8.36193 5.75289 8.51126 6.35022C8.60459 6.72356 8.75393 7.26489 8.95926 7.97422L9.04326 8.22622C9.15526 8.52489 9.18326 8.80956 9.12726 9.08022C9.07126 9.35089 8.93126 9.57956 8.70726 9.76622L7.41926 11.1662C7.25126 11.2782 7.15326 11.4322 7.12526 11.6282C7.09726 11.8242 7.11126 12.0156 7.16726 12.2022C8.04459 13.7142 9.11326 15.1002 10.3733 16.3602C11.6333 17.6202 13.0193 18.6889 14.5313 19.5662C14.6993 19.6782 14.8859 19.7156 15.0913 19.6782C15.2966 19.6409 15.4553 19.5569 15.5673 19.4262L17.1073 17.9142C17.2939 17.7276 17.5366 17.5969 17.8353 17.5222C18.1339 17.4476 18.3953 17.4662 18.6193 17.5782C19.7019 18.0076 20.8686 18.2782 22.1193 18.3902C22.4739 18.4462 22.7726 18.6282 23.0153 18.9362C23.2579 19.2442 23.3419 19.5662 23.2673 19.9022ZM14.8673 3.32622C16.3793 3.47556 17.7513 3.94222 18.9833 4.72622C20.2153 5.51022 21.2233 6.51822 22.0073 7.75022C22.7913 8.98222 23.2579 10.3542 23.4073 11.8662C23.4073 12.0902 23.4959 12.2816 23.6733 12.4402C23.8506 12.5989 24.0326 12.6782 24.2193 12.6782H24.3313C24.5553 12.6782 24.7466 12.5802 24.9053 12.3842C25.0639 12.1882 25.1433 11.9689 25.1433 11.7262C24.9566 9.97156 24.3873 8.35689 23.4353 6.88222C22.5206 5.44489 21.3306 4.26889 19.8653 3.35422C18.3999 2.43956 16.7806 1.88889 15.0073 1.70222C14.7646 1.70222 14.5453 1.78156 14.3493 1.94022C14.1533 2.09889 14.0553 2.28089 14.0553 2.48622C14.0553 2.69156 14.1346 2.88289 14.2933 3.06022C14.4519 3.23756 14.6433 3.32622 14.8673 3.32622ZM14.0553 7.07822C13.9993 7.30222 14.0459 7.51689 14.1953 7.72222C14.3446 7.92756 14.5313 8.05822 14.7553 8.11422C15.7259 8.30089 16.5706 8.75822 17.2893 9.48622C18.0079 10.2142 18.4886 11.0822 18.7313 12.0902C18.7873 12.3142 18.8899 12.4869 19.0393 12.6082C19.1886 12.7296 19.3566 12.7902 19.5433 12.7902H19.6553C19.8979 12.7342 20.0893 12.6036 20.2293 12.3982C20.3693 12.1929 20.4113 11.9689 20.3553 11.7262C20.1313 10.4009 19.5386 9.25289 18.5773 8.28222C17.6159 7.31156 16.4633 6.67689 15.1193 6.37822C14.8766 6.32222 14.6526 6.35489 14.4473 6.47622C14.2419 6.59756 14.1113 6.79822 14.0553 7.07822Z" fill="#111827"/>
</svg>
