<svg width="27" height="27" viewBox="0 0 27 27" fill="none" xmlns="http://www.w3.org/2000/svg">
<g clip-path="url(#clip0_1_830)">
<path d="M21.254 22.394L17.146 18.286C17.8566 17.454 18.4113 16.5136 18.81 15.465C19.2086 14.4163 19.408 13.3286 19.408 12.202C19.408 10.486 18.9746 8.89131 18.108 7.41797C17.276 5.97931 16.1406 4.83531 14.702 3.98598C13.2286 3.11931 11.6253 2.68597 9.89198 2.68597C8.15864 2.68597 6.55531 3.11931 5.08198 3.98598C3.64331 4.81797 2.49931 5.94464 1.64998 7.36597C0.783309 8.85664 0.349976 10.4643 0.349976 12.189C0.349976 13.9136 0.783309 15.5126 1.64998 16.986C2.48198 18.4246 3.60864 19.5686 5.02998 20.418C6.52064 21.302 8.13264 21.744 9.86598 21.744C10.9926 21.744 12.0803 21.5446 13.129 21.146C14.1776 20.7473 15.118 20.1926 15.95 19.482L20.058 23.59C20.11 23.642 20.188 23.6896 20.292 23.733C20.396 23.7763 20.5 23.798 20.604 23.798C20.708 23.798 20.812 23.7763 20.916 23.733C21.02 23.6896 21.098 23.642 21.15 23.59C21.358 23.382 21.4663 23.174 21.475 22.966C21.4836 22.758 21.41 22.5673 21.254 22.394ZM2.06598 12.098C2.06598 10.6766 2.42131 9.35931 3.13198 8.14597C3.82531 6.98464 4.75264 6.05731 5.91398 5.36398C7.12731 4.65331 8.44464 4.29798 9.86598 4.29798C11.2873 4.29798 12.6046 4.66197 13.818 5.38997C14.9966 6.08331 15.9326 7.02798 16.626 8.22397C17.3193 9.41997 17.666 10.72 17.666 12.124C17.666 13.528 17.302 14.8366 16.574 16.05C15.8806 17.2286 14.936 18.1646 13.74 18.858C12.544 19.5513 11.2526 19.898 9.86598 19.898C8.46198 19.9326 7.14464 19.5946 5.91398 18.884C4.75264 18.208 3.82098 17.2633 3.11898 16.05C2.41698 14.8366 2.06598 13.5193 2.06598 12.098Z" fill="black"/>
</g>
<defs>
<clipPath id="clip0_1_830">
<rect width="26" height="26" fill="white" transform="matrix(1 0 0 -1 0.0899658 26.1899)"/>
</clipPath>
</defs>
</svg>
