<svg width="13" height="7" viewBox="0 0 13 7" fill="none" xmlns="http://www.w3.org/2000/svg">
<path d="M12.8541 3.1481C12.8541 3.1201 12.8424 3.09443 12.8191 3.0711C12.7957 3.04776 12.7701 3.0361 12.7421 3.0361L10.4041 0.698096C10.3107 0.614096 10.2034 0.572096 10.0821 0.572096C9.96073 0.572096 9.85339 0.614096 9.76006 0.698096C9.66673 0.782096 9.62239 0.88943 9.62706 1.0201C9.63173 1.15076 9.67606 1.2581 9.76006 1.3421L11.3421 2.9241H0.772059C0.650725 2.9241 0.543392 2.9661 0.450059 3.0501C0.356725 3.1341 0.310059 3.24843 0.310059 3.3931C0.310059 3.53776 0.352059 3.64976 0.436059 3.7291C0.520059 3.80843 0.632059 3.8481 0.772059 3.8481H11.3981L9.81606 5.4301C9.73206 5.5141 9.69006 5.6191 9.69006 5.7451C9.69006 5.8711 9.73206 5.98076 9.81606 6.0741C9.84406 6.1021 9.88606 6.12776 9.94206 6.1511C9.99806 6.17443 10.0541 6.1861 10.1101 6.1861C10.1661 6.1861 10.2221 6.17443 10.2781 6.1511C10.3341 6.12776 10.3761 6.1021 10.4041 6.0741L12.7421 3.7361C12.7607 3.71743 12.7794 3.6941 12.7981 3.6661C12.8167 3.6381 12.8354 3.6241 12.8541 3.6241C12.8821 3.50276 12.8961 3.40943 12.8961 3.3441C12.8961 3.27876 12.8821 3.21343 12.8541 3.1481Z" fill="#212529"/>
</svg>
