<svg width="41" height="16" viewBox="0 0 41 16" fill="none" xmlns="http://www.w3.org/2000/svg">
<g clip-path="url(#clip0_1_799)">
<mask id="mask0_1_799" style="mask-type:luminance" maskUnits="userSpaceOnUse" x="0" y="1" width="41" height="15">
<path d="M40.5 1.43042H0.5V15.4304H40.5V1.43042Z" fill="white"/>
</mask>
<g mask="url(#mask0_1_799)">
<path d="M29.3 4.83037C30.2 4.83037 30.9 4.13037 30.9 3.23037C30.9 2.33037 30.2 1.63037 29.3 1.63037C28.4 1.63037 27.7 2.33037 27.7 3.23037C27.6 4.13037 28.3 4.83037 29.3 4.83037C29.3 4.93037 29.3 4.93037 29.3 4.83037ZM16.7 5.73037C16.6 5.93037 16.1 7.43037 14.8 9.03037V2.33037L11.4 3.03037V15.1304H14.8V11.4304C15.8 12.9304 16.3 15.1304 16.3 15.1304H20.4C20 13.4304 18.2 10.3304 18.2 10.3304C19.3 8.93037 20.1 7.43037 20.6 5.83037L16.7 5.73037ZM25.7 5.63037C22.6 5.73037 21.1 7.13037 21.1 9.83037V15.1304H24.5V10.8304C24.5 9.23037 24.7 8.53037 26.7 8.43037V5.73037C26.3 5.63037 25.7 5.63037 25.7 5.63037ZM5.6 7.13037C5.2 7.13037 4.2 7.03037 4.2 6.13037C4.2 5.03037 5.6 5.03037 6.1 5.03037C7 5.03037 8.2 5.33037 9.1 5.53037C9.4 5.63037 9.7 5.73037 10 5.83037V3.03037H9.9C8.9 2.63037 7.7 2.33037 5.5 2.33037C1.8 2.33037 0.5 4.53037 0.5 6.43037C0.5 7.53037 1 10.0304 5.3 10.3304C5.7 10.3304 6.6 10.4304 6.6 11.3304C6.6 12.0304 5.8 12.5304 4.5 12.5304C3 12.5304 1.6 12.1304 0.8 11.8304V14.8304C2.1 15.1304 3.5 15.3304 5.2 15.3304C8.9 15.3304 10.5 13.2304 10.5 11.2304C10.5 8.83037 8.7 7.33037 5.6 7.13037ZM27.6 15.1304H30.9V5.73037H27.6V15.1304ZM37.2 2.93037V15.1304H40.5V2.33037L37.2 2.93037ZM32.3 2.93037L35.6 2.33037V15.1304H32.3V2.93037Z" fill="#862565"/>
</g>
</g>
<defs>
<clipPath id="clip0_1_799">
<rect width="41" height="15" fill="white" transform="translate(0 0.8302)"/>
</clipPath>
</defs>
</svg>
