<svg width="23" height="23" viewBox="0 0 23 23" fill="none" xmlns="http://www.w3.org/2000/svg">
<g clip-path="url(#clip0_1_51)">
<path d="M13.491 2.97998C12.7284 2.97998 11.9987 3.14498 11.302 3.47498C10.6054 3.80498 10.0224 4.24865 9.55304 4.80598C9.09837 4.21931 8.52637 3.76831 7.83704 3.45298C7.14771 3.13765 6.40704 2.97998 5.61504 2.97998C4.72037 2.97998 3.88437 3.19998 3.10704 3.63998C2.35904 4.06531 1.76504 4.64465 1.32504 5.37798C0.885039 6.11131 0.665039 6.90331 0.665039 7.75398C0.665039 9.35265 1.09771 10.9293 1.96304 12.484C2.65237 13.7306 3.61304 14.9406 4.84504 16.114C5.72504 16.9646 6.70771 17.7493 7.79304 18.468C8.46771 18.9373 8.96637 19.2453 9.28904 19.392C9.34771 19.4506 9.43571 19.48 9.55304 19.48C9.67037 19.48 9.79504 19.4506 9.92704 19.392C10.279 19.216 10.7777 18.908 11.423 18.468C12.4937 17.7493 13.4764 16.9646 14.371 16.114C15.5884 14.9406 16.5417 13.7306 17.231 12.484C18.0964 10.9293 18.529 9.35265 18.529 7.75398C18.529 6.90331 18.3017 6.11131 17.847 5.37798C17.3924 4.64465 16.7764 4.06165 15.999 3.62898C15.2217 3.19631 14.3857 2.97998 13.491 2.97998ZM9.55304 18.006C8.61437 17.434 7.74904 16.8253 6.95704 16.18C5.56371 15.0506 4.46371 13.8846 3.65704 12.682C2.57171 11.0833 2.02904 9.46998 2.02904 7.84198C2.02904 7.21131 2.19404 6.62831 2.52404 6.09298C2.85404 5.55765 3.29404 5.13231 3.84404 4.81698C4.39404 4.50165 4.98437 4.34398 5.61504 4.34398C6.34837 4.34398 7.01204 4.53465 7.60604 4.91598C8.20004 5.29731 8.63637 5.81065 8.91504 6.45598C8.97371 6.60265 9.08737 6.70531 9.25604 6.76398C9.42471 6.82265 9.60071 6.82265 9.78404 6.76398C9.96737 6.70531 10.103 6.60265 10.191 6.45598C10.4697 5.81065 10.9097 5.29731 11.511 4.91598C12.1124 4.53465 12.7724 4.34398 13.491 4.34398C14.151 4.34398 14.756 4.50165 15.306 4.81698C15.856 5.13231 16.2887 5.55765 16.604 6.09298C16.9194 6.62831 17.077 7.21131 17.077 7.84198C17.077 9.44065 16.5344 11.0393 15.449 12.638C14.6277 13.8406 13.5277 15.014 12.149 16.158C11.3277 16.8326 10.4624 17.4486 9.55304 18.006Z" fill="#030712"/>
</g>
<defs>
<clipPath id="clip0_1_51">
<rect width="21.69" height="22" fill="white" transform="matrix(1 0 0 -1 0.660034 22.23)"/>
</clipPath>
</defs>
</svg>
