<svg width="20" height="21" viewBox="0 0 20 21" fill="none" xmlns="http://www.w3.org/2000/svg">
<path d="M16.94 3.01999H0.7C0.5 3.04666 0.333333 3.13999 0.2 3.29999C0.0666667 3.45999 0 3.63999 0 3.83999C0 4.03999 0.0666667 4.22332 0.2 4.38999C0.333333 4.55666 0.5 4.65332 0.7 4.67999H3.92L3.34 12.06V12.2C3.34 12.6533 3.50333 13.0433 3.83 13.37C4.15667 13.6967 4.54667 13.86 5 13.86H15.22C15.62 13.86 15.97 13.7367 16.27 13.49C16.57 13.2433 16.76 12.94 16.84 12.58L18.56 5.05999C18.5867 4.89999 18.6 4.77332 18.6 4.67999C18.6 4.21332 18.44 3.81999 18.12 3.49999C17.8 3.17999 17.4067 3.01999 16.94 3.01999ZM15.22 12.18H5L5.58 4.67999H16.94L15.22 12.18ZM6.54 18.02C7.00667 18.02 7.40333 17.8567 7.73 17.53C8.05667 17.2033 8.22 16.8067 8.22 16.34C8.22 15.8733 8.05667 15.48 7.73 15.16C7.40333 14.84 7.00667 14.68 6.54 14.68C6.08667 14.68 5.69667 14.84 5.37 15.16C5.04333 15.48 4.88 15.8733 4.88 16.34C4.88 16.8067 5.04333 17.2033 5.37 17.53C5.69667 17.8567 6.08667 18.02 6.54 18.02ZM14.04 18.02C14.5067 18.02 14.9033 17.8567 15.23 17.53C15.5567 17.2033 15.72 16.8067 15.72 16.34C15.72 15.8733 15.5567 15.48 15.23 15.16C14.9033 14.84 14.5067 14.68 14.04 14.68C13.5867 14.68 13.1967 14.84 12.87 15.16C12.5433 15.48 12.38 15.8733 12.38 16.34C12.38 16.8067 12.5433 17.2033 12.87 17.53C13.1967 17.8567 13.5867 18.02 14.04 18.02Z" fill="white"/>
</svg>
