<svg width="14" height="14" viewBox="0 0 14 14" fill="none" xmlns="http://www.w3.org/2000/svg">
<g clip-path="url(#clip0_1_644)">
<path d="M9.88982 3.45697C9.81182 3.37897 9.71432 3.33997 9.59732 3.33997C9.48032 3.33997 9.37849 3.37897 9.29182 3.45697L3.66282 9.08597L1.23182 6.65497C1.14515 6.56831 1.04332 6.52497 0.926319 6.52497C0.809319 6.52497 0.711819 6.56831 0.633819 6.65497C0.555819 6.74164 0.514653 6.84131 0.510319 6.95397C0.505986 7.06664 0.547153 7.16631 0.633819 7.25297L3.33782 9.95697C3.36382 9.98297 3.40282 10.0068 3.45482 10.0285C3.50682 10.0501 3.55882 10.061 3.61082 10.061C3.66282 10.061 3.71482 10.0501 3.76682 10.0285C3.81882 10.0068 3.85782 9.98297 3.88382 9.95697L9.83782 4.00297C9.94182 3.91631 9.99815 3.82531 10.0068 3.72997C10.0155 3.63464 9.97649 3.54364 9.88982 3.45697Z" fill="white"/>
</g>
<defs>
<clipPath id="clip0_1_644">
<rect width="13.02" height="13" fill="white" transform="matrix(1 0 0 -1 0.5 13.48)"/>
</clipPath>
</defs>
</svg>
