<svg width="37" height="37" viewBox="0 0 37 37" fill="none" xmlns="http://www.w3.org/2000/svg">
<rect x="0.5" y="0.0301514" width="36" height="36" rx="6" fill="white"/>
<g clip-path="url(#clip0_1_762)">
<path d="M24.615 14.9701C24.625 15.0601 24.63 15.1951 24.63 15.3751C24.63 16.4151 24.44 17.4401 24.06 18.4501C23.67 19.5101 23.11 20.4501 22.38 21.2701C21.6 22.1501 20.685 22.8351 19.635 23.3251C18.495 23.8551 17.245 24.1201 15.885 24.1201C15.025 24.1201 14.195 24.0026 13.395 23.7676C12.595 23.5326 11.85 23.1901 11.16 22.7401C11.42 22.7701 11.67 22.7851 11.91 22.7851C12.61 22.7851 13.2875 22.6701 13.9425 22.4401C14.5975 22.2101 15.19 21.8851 15.72 21.4651C15.05 21.4551 14.4525 21.2501 13.9275 20.8501C13.4025 20.4501 13.04 19.9451 12.84 19.3351C13.04 19.3651 13.235 19.3801 13.425 19.3801C13.725 19.3801 13.995 19.3451 14.235 19.2751C13.765 19.1851 13.345 18.9951 12.975 18.7051C12.605 18.4151 12.3125 18.0576 12.0975 17.6326C11.8825 17.2076 11.775 16.7501 11.775 16.2601V16.2151C12.185 16.4551 12.645 16.5851 13.155 16.6051C12.735 16.3351 12.4025 15.9726 12.1575 15.5176C11.9125 15.0626 11.79 14.5751 11.79 14.0551C11.79 13.4951 11.93 12.9751 12.21 12.4951C12.98 13.4451 13.905 14.2001 14.985 14.7601C16.095 15.3301 17.28 15.6501 18.54 15.7201C18.49 15.4701 18.465 15.2351 18.465 15.0151C18.465 14.4551 18.6025 13.9401 18.8775 13.4701C19.1525 13.0001 19.525 12.6276 19.995 12.3526C20.465 12.0776 20.98 11.9401 21.54 11.9401C21.98 11.9401 22.395 12.0276 22.785 12.2026C23.175 12.3776 23.51 12.6151 23.79 12.9151C24.5 12.7751 25.15 12.5251 25.74 12.1651C25.63 12.5251 25.4575 12.8501 25.2225 13.1401C24.9875 13.4301 24.71 13.6701 24.39 13.8601C24.96 13.8001 25.55 13.6401 26.16 13.3801C25.74 14.0001 25.225 14.5301 24.615 14.9701Z" fill="#1DA1F2"/>
</g>
<defs>
<clipPath id="clip0_1_762">
<rect width="15" height="15" fill="white" transform="matrix(1 0 0 -1 11 25.5302)"/>
</clipPath>
</defs>
</svg>
