<svg width="24" height="16" viewBox="0 0 24 16" fill="none" xmlns="http://www.w3.org/2000/svg">
<g clip-path="url(#clip0_1_780)">
<mask id="mask0_1_780" style="mask-type:luminance" maskUnits="userSpaceOnUse" x="0" y="1" width="24" height="15">
<path d="M24 1.0304H0V15.8304H24V1.0304Z" fill="white"/>
</mask>
<g mask="url(#mask0_1_780)">
<path d="M7.4 15.8304C11.4869 15.8304 14.8 12.5173 14.8 8.4304C14.8 4.34349 11.4869 1.0304 7.4 1.0304C3.31309 1.0304 0 4.34349 0 8.4304C0 12.5173 3.31309 15.8304 7.4 15.8304Z" fill="#DD3D31"/>
<path d="M16.5999 15.8304C20.6868 15.8304 23.9999 12.5173 23.9999 8.4304C23.9999 4.34349 20.6868 1.0304 16.5999 1.0304C12.513 1.0304 9.19995 4.34349 9.19995 8.4304C9.19995 12.5173 12.513 15.8304 16.5999 15.8304Z" fill="#EEB046"/>
<path fill-rule="evenodd" clip-rule="evenodd" d="M12.0001 14.3304C15.2001 11.8304 15.8001 7.13037 13.3001 3.93037C12.9001 3.43037 12.5001 3.03037 12.0001 2.63037C8.80002 5.13037 8.20002 9.83037 10.7001 13.0304C11.1001 13.5304 11.5001 13.9304 12.0001 14.3304Z" fill="#EF7D2F"/>
</g>
</g>
<defs>
<clipPath id="clip0_1_780">
<rect width="24" height="15" fill="white" transform="translate(0 0.8302)"/>
</clipPath>
</defs>
</svg>
