<svg width="27" height="26" viewBox="0 0 27 26" fill="none" xmlns="http://www.w3.org/2000/svg">
<path d="M13.5539 11.102C12.7219 11.6394 11.8206 11.908 10.8499 11.908C10.2086 11.908 9.58895 11.7824 8.99095 11.531C8.39295 11.2797 7.86428 10.9287 7.40495 10.478C6.94561 10.0274 6.59461 9.50304 6.35195 8.90504C6.10928 8.30704 5.98795 7.68738 5.98795 7.04604C5.98795 6.04071 6.26095 5.13071 6.80695 4.31604C7.35295 3.50138 8.07228 2.90771 8.96495 2.53504C9.85761 2.16238 10.8066 2.07137 11.8119 2.26204C12.7479 2.43538 13.5713 2.87304 14.2819 3.57504C14.9926 4.27704 15.4389 5.10904 15.6209 6.07104C15.8029 7.03304 15.7119 7.97338 15.3479 8.89204C14.9839 9.81071 14.3859 10.5474 13.5539 11.102ZM12.3579 4.78404C11.9073 4.48938 11.4046 4.34204 10.8499 4.34204C10.1219 4.34204 9.48061 4.60204 8.92595 5.12204C8.40595 5.67671 8.14595 6.31804 8.14595 7.04604C8.14595 7.60071 8.29761 8.10338 8.60094 8.55404C8.90428 9.00471 9.30728 9.33404 9.80995 9.54204C10.3126 9.75004 10.8326 9.80204 11.3699 9.69804C11.9073 9.59404 12.3709 9.34704 12.7609 8.95704C13.1509 8.56704 13.3979 8.10338 13.5019 7.56604C13.6059 7.02871 13.5539 6.50871 13.3459 6.00604C13.1379 5.50338 12.8086 5.09604 12.3579 4.78404ZM3.95995 15.86C4.86128 14.9414 5.90995 14.235 7.10595 13.741C8.30195 13.247 9.54994 13 10.8499 13C12.1499 13 13.3979 13.247 14.5939 13.741C15.7899 14.235 16.8429 14.937 17.7529 15.847C18.6629 16.757 19.3649 17.81 19.8589 19.006C20.3529 20.202 20.5999 21.45 20.5999 22.75C20.5999 23.062 20.4873 23.322 20.2619 23.53C20.0366 23.738 19.7853 23.842 19.5079 23.842H14.0999C13.8053 23.842 13.5496 23.7337 13.3329 23.517C13.1163 23.3004 13.0079 23.0447 13.0079 22.75C13.0079 22.4554 13.1163 22.1997 13.3329 21.983C13.5496 21.7664 13.8053 21.658 14.0999 21.658H18.3639C18.2253 20.7567 17.9393 19.903 17.5059 19.097C17.0726 18.291 16.5093 17.5934 15.8159 17.004C15.1226 16.4147 14.3513 15.9597 13.5019 15.639C12.6526 15.3184 11.7686 15.158 10.8499 15.158C9.93128 15.158 9.04728 15.3184 8.19795 15.639C7.34861 15.9597 6.57728 16.4147 5.88394 17.004C5.19061 17.5934 4.62728 18.291 4.19395 19.097C3.76061 19.903 3.47461 20.7567 3.33595 21.658H7.59995C7.87728 21.658 8.13728 21.762 8.37995 21.97C8.58794 22.2127 8.69195 22.4727 8.69195 22.75C8.69195 23.0274 8.58794 23.2874 8.37995 23.53C8.13728 23.738 7.87728 23.842 7.59995 23.842H2.19195C1.91461 23.842 1.66328 23.738 1.43795 23.53C1.21261 23.322 1.09995 23.062 1.09995 22.75C1.09995 21.45 1.34695 20.2064 1.84095 19.019C2.33495 17.8317 3.04128 16.7787 3.95995 15.86Z" fill="#030712"/>
</svg>
