<svg width="36" height="14" viewBox="0 0 36 14" fill="none" xmlns="http://www.w3.org/2000/svg">
<g clip-path="url(#clip0_1_774)">
<mask id="mask0_1_774" style="mask-type:luminance" maskUnits="userSpaceOnUse" x="0" y="1" width="36" height="13">
<path d="M36 1.43042H0V13.4304H36V1.43042Z" fill="white"/>
</mask>
<g mask="url(#mask0_1_774)">
<path d="M31.6001 5.7304L32.2001 8.9304H29.8001L31.0001 5.8304L31.2001 5.2304L31.3001 4.7304C31.3001 4.8304 31.6001 5.7304 31.6001 5.7304ZM8.90005 12.8304L13.3001 1.9304H10.3001L7.60005 9.4304L7.30005 7.8304L6.30005 2.8304C6.20005 2.2304 5.70005 1.8304 4.90005 1.8304H0.400049L0.300049 2.0304C1.50005 2.2304 2.40005 2.6304 3.30005 3.2304L5.90005 12.9304H9.00005L8.90005 12.8304ZM15.6001 12.8304L17.4001 1.9304H14.6001L12.8001 13.0304H15.6001V12.8304ZM25.7001 9.3304C25.7001 8.1304 24.9001 7.1304 23.3001 6.2304C22.1001 5.7304 21.5001 5.3304 21.5001 4.9304C21.5001 4.3304 22.1001 4.0304 23.3001 4.0304C24.0001 4.0304 24.7001 4.0304 25.3001 4.5304H25.7001L26.0001 2.0304C25.1001 1.6304 24.3001 1.5304 23.4001 1.5304C22.5001 1.5304 21.7001 1.7304 21.0001 2.0304C20.3001 2.3304 19.7001 2.7304 19.2001 3.3304C18.8001 3.9304 18.6001 4.5304 18.6001 5.2304C18.6001 6.4304 19.4001 7.4304 21.2001 8.3304C22.1001 8.8304 22.6001 9.23039 22.6001 9.63039C22.6001 10.3304 22.0001 10.8304 20.9001 10.8304C20.0001 10.8304 19.0001 10.6304 18.2001 10.2304L17.8001 10.0304L17.3001 12.4304C18.3001 12.8304 19.4001 13.1304 20.5001 13.1304C21.8001 13.2304 23.0001 12.8304 24.0001 12.2304C25.2001 11.4304 25.7001 10.4304 25.7001 9.3304ZM35.7001 12.8304L33.4001 1.9304H31.2001C30.5001 1.9304 30.0001 2.1304 29.8001 2.8304L25.5001 13.0304H28.5001L29.0001 11.4304H32.8001L33.2001 13.1304H35.8001V12.8304H35.7001Z" fill="url(#paint0_linear_1_774)"/>
</g>
</g>
<defs>
<linearGradient id="paint0_linear_1_774" x1="1.58195" y1="7.3388" x2="35.245" y2="7.3388" gradientUnits="userSpaceOnUse">
<stop stop-color="#2C3572"/>
<stop offset="1" stop-color="#3C62AB"/>
</linearGradient>
<clipPath id="clip0_1_774">
<rect width="36" height="13" fill="white" transform="translate(0 0.8302)"/>
</clipPath>
</defs>
</svg>
